<mxfile host="app.diagrams.net" agent="Mozilla/5.0 (Windows NT 10.0; Win64; x64) AppleWebKit/537.36 (KHTML, like Gecko) Chrome/122.0.0.0 Safari/537.36" version="26.0.15">
  <diagram id="Ht1M8jgEwFfnCIfOTk4-" name="Page-1">
    <mxGraphModel dx="1313" dy="1533" grid="1" gridSize="10" guides="1" tooltips="1" connect="1" arrows="1" fold="1" page="1" pageScale="1" pageWidth="1169" pageHeight="827" math="0" shadow="0">
      <root>
        <mxCell id="0" />
        <mxCell id="1" parent="0" />
        <mxCell id="UEzPUAAOIrF-is8g5C7q-175" value="Grafosoft" style="points=[[0,0],[0.25,0],[0.5,0],[0.75,0],[1,0],[1,0.25],[1,0.5],[1,0.75],[1,1],[0.75,1],[0.5,1],[0.25,1],[0,1],[0,0.75],[0,0.5],[0,0.25]];outlineConnect=0;gradientColor=none;html=1;whiteSpace=wrap;fontSize=12;fontStyle=0;shape=mxgraph.aws4.group;grIcon=mxgraph.aws4.group_aws_cloud_alt;strokeColor=#232F3E;fillColor=none;verticalAlign=top;align=left;spacingLeft=30;fontColor=#232F3E;dashed=0;labelBackgroundColor=#ffffff;container=1;pointerEvents=0;collapsible=0;recursiveResize=0;shadow=1;" parent="1" vertex="1">
          <mxGeometry x="213" y="-790" width="1106" height="500" as="geometry" />
        </mxCell>
        <mxCell id="DsdZXftXb6FMQTqhYJn2-3" value="" style="shape=image;verticalLabelPosition=bottom;labelBackgroundColor=default;verticalAlign=top;aspect=fixed;imageAspect=0;image=https://globho.com/wp-content/uploads/2022/02/logo-globho-redondo-96_003000301_3150@2x.png;" vertex="1" parent="UEzPUAAOIrF-is8g5C7q-175">
          <mxGeometry x="211" y="10" width="77" height="77" as="geometry" />
        </mxCell>
        <mxCell id="DsdZXftXb6FMQTqhYJn2-15" value="" style="rounded=1;whiteSpace=wrap;html=1;" vertex="1" parent="UEzPUAAOIrF-is8g5C7q-175">
          <mxGeometry width="30" height="30" as="geometry" />
        </mxCell>
        <mxCell id="DsdZXftXb6FMQTqhYJn2-8" value="" style="shape=image;verticalLabelPosition=bottom;labelBackgroundColor=default;verticalAlign=top;aspect=fixed;imageAspect=0;image=https://pos.grafosoft.com/images/grafo.png;" vertex="1" parent="UEzPUAAOIrF-is8g5C7q-175">
          <mxGeometry width="31" height="31" as="geometry" />
        </mxCell>
        <mxCell id="DsdZXftXb6FMQTqhYJn2-31" style="edgeStyle=orthogonalEdgeStyle;rounded=0;orthogonalLoop=1;jettySize=auto;html=1;exitX=0.5;exitY=1;exitDx=0;exitDy=0;" edge="1" parent="UEzPUAAOIrF-is8g5C7q-175" source="DsdZXftXb6FMQTqhYJn2-17" target="DsdZXftXb6FMQTqhYJn2-29">
          <mxGeometry relative="1" as="geometry" />
        </mxCell>
        <mxCell id="DsdZXftXb6FMQTqhYJn2-17" value="Software&lt;br&gt;Globho" style="text;html=1;align=center;verticalAlign=middle;whiteSpace=wrap;rounded=0;" vertex="1" parent="UEzPUAAOIrF-is8g5C7q-175">
          <mxGeometry x="219.5" y="87" width="60" height="30" as="geometry" />
        </mxCell>
        <mxCell id="DsdZXftXb6FMQTqhYJn2-33" style="edgeStyle=orthogonalEdgeStyle;rounded=0;orthogonalLoop=1;jettySize=auto;html=1;exitX=0.5;exitY=1;exitDx=0;exitDy=0;entryX=0.25;entryY=0;entryDx=0;entryDy=0;" edge="1" parent="UEzPUAAOIrF-is8g5C7q-175" source="DsdZXftXb6FMQTqhYJn2-18" target="DsdZXftXb6FMQTqhYJn2-29">
          <mxGeometry relative="1" as="geometry" />
        </mxCell>
        <mxCell id="DsdZXftXb6FMQTqhYJn2-18" value="Software&lt;br&gt;Cuental" style="text;html=1;align=center;verticalAlign=middle;whiteSpace=wrap;rounded=0;" vertex="1" parent="UEzPUAAOIrF-is8g5C7q-175">
          <mxGeometry x="490" y="87" width="60" height="30" as="geometry" />
        </mxCell>
        <mxCell id="DsdZXftXb6FMQTqhYJn2-34" style="edgeStyle=orthogonalEdgeStyle;rounded=0;orthogonalLoop=1;jettySize=auto;html=1;exitX=0.5;exitY=1;exitDx=0;exitDy=0;entryX=0.75;entryY=0;entryDx=0;entryDy=0;" edge="1" parent="UEzPUAAOIrF-is8g5C7q-175" source="DsdZXftXb6FMQTqhYJn2-19" target="DsdZXftXb6FMQTqhYJn2-29">
          <mxGeometry relative="1" as="geometry" />
        </mxCell>
        <mxCell id="DsdZXftXb6FMQTqhYJn2-19" value="Software&lt;br&gt;Bilidox" style="text;html=1;align=center;verticalAlign=middle;whiteSpace=wrap;rounded=0;" vertex="1" parent="UEzPUAAOIrF-is8g5C7q-175">
          <mxGeometry x="720" y="87" width="60" height="33" as="geometry" />
        </mxCell>
        <mxCell id="DsdZXftXb6FMQTqhYJn2-27" value="" style="shape=image;verticalLabelPosition=bottom;labelBackgroundColor=default;verticalAlign=top;aspect=fixed;imageAspect=0;image=data:image/png,iVBORw0KGgoAAAANSUhEUgAAAGAAAABgCAYAAADimHc4AAAACXBIWXMAAA7EAAAOxAGVKw4bAAAgAElEQVR4nLy9eZxkR3Xn+42Ie2/uWVn70t3V1Xt1q9WgxSBACCEhgwXIwuCBMdhjD2+8jIexDUgYxjbG2MPYBm9jmzEehvfwM88GbBaDEZsAoQXQinpRd6u7unqppWvNysrtLhHx/riZWZnV1RsIx+fTXVlZ98aNe86Js/zixAnBv2EbH3870kvg9HQTzs83vhUylewyxdI5rDG4ToJUuoeV4umkk8iOCsuotbYgheoTUmZBIoSQIBywBmxkrQ2s1WVrdMkYM2utPWdMsDB56qPl8X3vIAxqIEBHIZlsjzTaYCXG1g1hKcTp8Th+9IP/lqRoNfFv8ZDxvfdw9Jm72L3rS0g3QAghPS9lKuUFQJJKdVOuLfQJxLijvHHHSbxQSDkmpdvnKG9ESFUQQgZSqkAIFQlBGkhjiSyUrbWRtZFjjUkaawKjw3NaB7PG6LI10aEoqj9qrD0a+NXJVCobaGOoBAv05MekMcYoPHZuW+HkmSRLCxmmp9/3b0EW4EfMgL377gVlWFg4SW/3TqQUsl4vGSkdXDdJGNQ2C6ludpzEy5WTGHfd9HbH8TzHSfZJqaQQsiqElECy2ae1tvnRABJAiI5XMfGMMI61xtGRX4wivx5F9YUorM1qHT4c6eBL5aj4vZzXY4yOSCSz0hoL1jGprKFeM5hQcPToH/0oyUPHqJ/Ltmf8HjzPQZsQayVgZeBXjFQSa2xeSvUK5Xh3OG7qes/LjnpuuqCU58S0xrHWGrCyjdgQE7y9yUt9L2KuGISQAoG1tm5MJMOwVg6CylIYVI5Ekf8NrcPPSqUmrdEkUjlMpKUYnDPRyT5URvLMkT9+7gnU1p5TBuzbdy+RFRhtUFIilZFhUDUIgbW2Tyn3La6b/AXPy44lkjnpOElHCJmMCW2b0t2S7NYg4/sRiIuO2Frbum5da5spAiEkQKCjIAqCMn5Qngv86md15P+dlTwhLHheWlpjDWiUUoSh5NjRP3wuSbX2bs9VR3uvuQdrLf35XuZXF2V5qWpSeQWWPiHVz3tu+qcTqa7diUQuqZTrWWulteuFtzkkC4iGavnB2xozmn0CDYY0mWGtiYKgEtTrKwuBX3kw0v7/FPAdrTWel5JYxxgboZREWDjyHM+IH5oBe/e/C7TBYuMXQstIB8bWex2VKv5H1029NZXqHk8k856UyrPWyEtJ+o+qWYANZokAhFRYbBAGVVOrLi/5funjURh+SEi70NU7QmVlWYI20nEwkeDokefONqgf5ubx8XuRymCtAYE0YWS18a2Uzm1O0vxFOt37plx+aLPnZTKAa61pUVg0qB1LoviREh8ahL7IM6y1YK1SjuckEvmE4yRusNa8yhhdCaP6wSioWaU8R+qMsTakf/BmFuYfes7G9QO1ffvuQWsouo/Sba53dBRGrsgmtaz/geflfiqT7c+6brIQeyOxxLVL34+a4FfSWmNBYNdUFFIqjInqtepyuVZb+mwY1t8H9pzrJqU10tCY7WGgOHHiAz/UGH6gGRDre4NUkoQdlCYKtJBqH4qPZ3IDt+dyQwUpVcFa0+6R0Px8pcRvGtb2JgRIuTZrZNsMal67vvuN+mkfS5P4zWvi66XjJbJJx03vMTq60xhdDMPqwaDi4yRcaTHWcaGv98UsLDx8hZS7sF2VGG7e/Bvku1xMw3hK4eL7JZRyfsr10u/L5oaGPC9dMEY7gBFCdLiSV0L4dmJJIRAStLYYE/+LIoMxBmvBWIs1McHjfwKpBI6SSCmQUqCUbPXbHMrFGLLRTJVSYoyul8vnq/Xayv9WXdV3VWctiVRWCoGRwgFhOXLoBzPOV8yAffv+M4ZMHP0D5WqJhCNRburXk8nCr+XyQwUhZcEac8FLXI7wHUSX8X1RZAgCTRhqkkmXZNIhm/UYGc7R1ZUkmXRJpRwSnkMYGXw/wvcjisU6c/NlVlZ8avWQSjkAIJFw8DzV6j9W+1fGiIbHVK9Wl+qV8tzny6u1/5RI2MBxU1KCkdIjRHP88NUz4YoZsGffu8BGADL0y0a5IGX6D9PpnjdkcoNDWJte74tfjcRLKYi0oVYNkVLQ05Ni184+nv/8YcZ397Npc57BgSyplIuUF+/XWksQaCqVgNOni5w4uciJk4s89dQMZ8+tUK2GJJIx4+LYY2NGbDwbnKheXwnKpZn7TeS/1cCco1xHoKMzfpYtyeCqA7crYsDea+7BxCOVtXrNFEY8giX5N+lM/2sy2b6CMTrNOpVzpVIvpSAINPV6SFdXkhtv2Mwrbt/BjTdsoq8vc9F7O9VJ/CpNNbRR8/2Io8cWeOjh09x//wlOTS4jpSCd9rA2Vm8Xmw2dTFAmCCrBamn6UBSFbxXWPC2U49RWbo5S6UcQLjxzFW7qZRkwfs29YA0W8OtV0okqWvR8LJsduDud7ksbE3m0Ef9qCB+Gmmo1ZNNInrvu2surXrmbraOFjmuNWWPoBca18d/FHhnfD1LGurzZqtWQBx+a5B8/dZAnn5zGdRWppIM29qKzod1AS6kIw1q9tDK1pHX4Vmv1fVJJKep5Y2Qd4RiOPnNlM+GS1BofvyeOSSUcO3KSsZ39eG7mrzLZ/jdlMv3ZBvHbdOWlu4wHH3seq6s+vb1pfup11/DTr9/fknbTIEK7mrGWhoSueUCXesbFmNb8vt0w3/flZ/noxx7jxIlF8vlE67rLqSQpFWFQra6snIustW81Nvy0kkquTBcMiSWyXQ7Hj10e4r7om+zbfy89u9LMP+OjXF8G9apRKvm+dKb3F7O5oYIxOtk+oCuRfKUkQaDxg4g7bt/Jf33bi9k0kgdAa9NBsKZubhKrvQWhxmhDGBoibfBchVIC11UXXN9SL1J0vKwxa32Xyz4f/l/f5VP/dAjHkbiuao1nfV/t7yylIgjKpdLKVBLLz4L9pFDScRIqslYQ1TXPHL60OtqQaoMH3kFPJEFGWCul1oEROL+cTHX9QVfXSNoYc8XEbw7acSTlckBfX5q3/eqLePWd4wBEkWm5jE3CgG2pDGstZ84UefKpGU6dWuLsuRIzsyUqlRDfjxqEFCQTDj09afr7M4yOFti5o5f9+wdbDIY1JjefZa1Fa4vjxM/6+v0n+YMPfINKJSCZdK+UCaZeW6murs5mBfInhLT3gXAQRCaKAcRnnrk4E5yNvuzTEoPBGimjKDBSqls8L/3b+fxw0lp7VcRvvvDKSp1r9w/xB++/gy1bCi110Hz5pqTGUimYninx1a+e4FsPnGLi1BKlkk8UGVxX4TgSIeM4Ib4XirbO9MwqkTZEUTwrurqSjO/p59Zbt3P7bTvo6U61GNFUZY4jWmrv9tt2sGVLF+/6zfs4N7VCOu1dwITmezcZYYyWyVRXMtJ+qVZd+ieB+xJrzFMIK4XAIPRF6QMbzIA94+9ESkAItPYRwumR0vlioXt0u1LegLXmilzNduKXVn1eeccu3vs7t5FKukSRQak1Xa61aamD06eL/N3fP8k3vznBwlIV11F4XoPoYk01rUedm+anqcaMiaW77kcYbRkezvGTr93Lm954gK6uZEsANpoN586t8F9//V84N1Uilbr4TOikg6yurJw1YVBbUjJ5nTH+EiCbgdMzRza2BxdAEYODN6NdB6WNjIK6lcr5YDY79KJEIttvrRFrD724MVwv+a9/3X7e/75X4Dqxbo2JKTqkvl6P+JuPfI///off5MknpxFCkE65bdeuGdFLNWNoMUcIQSLhkEg4VCoBj3znDPd/Y4KenjS7dvYihMCYNeIqJYkiQ6GQ4qabRrn/GycplwMcR14w29drACFwPS9T8v3SoLXRC0LMx53FRUs6hYkMg8O3MD93IYDXwYDxaxpej9Ey0r4R0rk7lSq8LZsb6DFGe+24+uWMrlKSUqnO6+7ex+/81m1Ap6S3E//w4fPc+5v38aX7jqGUJJVyG9ew7iUvH7asv6Rd0tNpl5WVOl/56rMsLlV50U2jKCUbKkm2jH4UGXq6U+ze1cdXvnpiQ4Kv/y6+10lL6cwEfumAI1SSTObrQkjpZrPWhCEL8xdiRi0G7Ljm7ZwPffLKxejQKun2KOX+Wb5rZFAI0U3s67cg5Is1a+NpXCrVeeWP7+b3f++OFiHaiR8TRfL5f3mG33zPl5mbq2zoBv6wqGn7/cbEY0skHB5/fIpDh85z68u2k0w6GzJhy5YuPE/xwAOnSCbdK7J5jptMRKE/o3Vwp0A+ZLEnTRhKC7Zv4CUXMKHFgOGBW+hBYiRSR4FFyPdkswMvSSSymxqqR1zJAJSSVCoB+/YO8KEP3tlSO+uJL4Tgo//nMT74Jw+2iLLmiv5ooOp2nZ1Oe5w4scjTh2Z5xe07SSQcjFmLP5pDeN6BYQ4ePM+pyeXWNetnQcdPUI6bqtfrK0pgXwHyIxYbCMCXMNTfyQQJsGPHOzBhhkApGenICMe70fPSd6fShYIxWjYJJ64gyApDTXd3ivf/3h2kGq6cUrLlOVgbD/Zv//ej/MVfPUIm46KU2NDQbfAUmvhN8/PFv7sUEyCKNIVCikcfneJ3fverMTHkmocT24e4n19724svaozX+lxTRY7jDaTSPXPGmlGE/UMZ20s5cfB1yHU0VACbRl+KT0TSQeiwbqVy/yCXGzzgOIl+27S8XFodNI1urRbx3959Kz9242aiyHQYsKYa+sdPPs2f/cXD5HOJS6KSFxIfrBUIYZFYjJVYJFJYhLBYK1veUGNUFxkrLQOcybgcOjyHl1Bcf91IYxbIhkDF9qG/P8PCfIUnnpxuqKLLDBVwnIQb+Ks1a81LQXwdOP1XA0elMdL29d3M4sKDQGMGHHzqt/Gkln5QN0j3Zs9N3eR52bSJoeXLYjxN6S+VfO54xQ5+4lV7WgFS897mTPjOd8/woT99kHTabd17tcS3VlCJA3GSMsA3DjWdQAoDIr6u/b5LNa0t+XyCj//dkzx7YrFllNerljf/zPPo6UkTRRslEnSqopgeTjqZ7K43Eg/+OOUIerPSIDRSrcUGat817+LDH/42gIiiupXSfXc2O7BPuYkBbHO54/LSH0WGnp4UH/j9V5JrSHYz2GlK/vx8hXvu/RLVWojrqosikJ2tk/jGCkBwZ//3ePPI/bxm8LtckztNRac4V+/HlbrFBHHZmdD0XiTlss/09Cp3/sSeDk+qGVN0daU4c6bI0wdnLzoL2m0MgHI8G/irZWvNrsjYY7XAHhICqR3f9vffwsLcw0ijPbTRhGHdCOHsdt3UC7xELt9YWJHx+uflpb9aDXnLm5/PyEi+BS+0R4wAH/rTBzlzdqXldVwt8QEi6/DWLf/Kr459jv25UwwnFrml+yDv3fVx7hp8hKqOPSnZmCnt/WzUmgKSzSZ48KHT/OuXjnXo/3be3fXavSST7mXjEdGgi5JONpHoChrB67uLRU9W6o4RQRK3MQmkUBFCIq3VCCHvSia7BoQQhbijywNsUgrq9Yjt23t43d3XAHSonqZn8Y1vTvC1r5+gqyuJ1lcv+QJLTXu8edPXeHX/d1kJM/jGIzKKsk4RWcVbt/wrP7f5K/jGxViBFGYdE9oN9BoR46yIeNyf+dyRmDBNNNaufb52/xC7d/dR96NGVH4hI4QQNB9prSGRzGeFVGVr7YFCd/iGTDJCSisPvnG1wQAiIr9ilJBJx/Fu9xLZdENvGXsZ6W+6jEEQ8cZ/d4BsphM7aU7vWi3kbz7yvQ1nxZUQX2Ip6xR3Dz7ETw8/QNWkkFiksLHfJzTWCnyT4I0jD/Bfxj6HQRBZhWpjgrWibSFn7TlCCIy1pNMuBw/O8vjjUy3haYdLpBTc/JKthIG+tLvctliklJt03XQVLAJ+RToC6Uiz95N5xq+5F2mxEikxiFtcNzOmlNtIFeRCHLj9GQ383/cjtm3r4TV37gHWXDlYi0K/8MWjHD02TzrlXoHe72SOxLCq09zR9zg/v+Wr1HyF0XqNeI3/BRajNSsVySt7HuWd2z+NJyN846JEc506hlDWXMbOJwsh8P2Iz3/hmdbv652EH7txM+n0pdWQEKKlPYQQTiKRldYSAbeaiJtMZEBY2UB9HUAgpXO7l8gWgDRgLoX1tB4iYvVz+207yDSkv70pJfH9iH/6zGESCYW5rMfTrhYEShjKOs1NhSP88ugXCENLqq9AKt9YvNEaHUboSGMtpLsyDO7ZQlVkeXH++7x7xz9QcFepag+BQWJiTym20hcYTWMsqZTLd757lqWlagdQ1/y8a2cv/X0ZoujSKKdtzWKD66azMlZDgH1z7AbH18l6sGoMOq2Ue6PnpvMN9SOvzIUz5PMJXvnju4DOnJ+mhHz9/pMcP75wxf5zPOiY+FWdYF92kl/b9hlEFJDs7WF471YG9oyy6brdDO3fztA12xm+Zhubr99N787NJLIpNh3YRs0pcCB9jN/e9Qm2pqapa8Fq6OJrFduGFhM6dbnjSIrFGocOn2+9R7tKzWQ8xsf78X3dMdsv/i4WKR3H89JNd/4NRouC1cIIK3CkFYC83nXTQ1I5GNPk7OUhh9VywK23bGfnjt6WSlrDeeL7v/zVZy8AyC7Sawfxa8ZjNDXHu3Z8iqQp4xR6GNqzhdnDp6iXq6S6sjgJl6Y0r0wvEFTrRH5A99YhRp+/nalDpxkTU/z27n/gZHmAmXoP317az4naZjIqQluJiFnReL5oORXff3qWW166rRUoAg24WrBtrJsoMq2AbqPWzjQhhOM4qQhKdWBISG4FPgtIx2KRQh5w3GSehvoRjRzui7VW5wZe8uLR1uCaGH/T85k4tcRTT82QSl3OdVsjvhQG37j0uKvcs+NTFMQSJtXFyP4xzj8ziQ4jNj1vF9XFEpEfEAeLllR3nr6dm7HaMHvkFFE9wFFQ0x7dToUXdR/HFZo7+r/PH0+8jidW9pB1wpgJYg3KMAY8z+Gpp2ZawOJablA8ztGtBTxPXdYdbTLOWoPrpR0pVRPKf7UU9rMIcFzXA5wXum6q7YbLu4lRZOjqSnDDDZuAzoUNYy0Swbe/PcnKSr1jAeRyxI+sQ1r53LPjU4x60wROji3XbmdxYpqgUmfz9XuQjqJry0Cc7tBsxoA24Ln0bBvh/JFTCCXjyNZARIKKFWSUz6+PfZ7fPPpzzIWDJGSIaTAhNtDgeYpTk0vMni8zPJTr8JgARobzJJMXAnOXalI6aSFV0eooCdwWGeEJCJwgCrJJLzGmlNvXeIi8ksyGIIi4Zt8IY1u7gU4cXjWY8fgTUx0o6IWDbSe+RVuFxPBr2z7D/vRJyibD1gPbKc0uUl4osvm6PUilsE1jb3Wjl8YaspQsn5pi5ewc0lEIKVt6HmtxpKFuXHq9Mv9p9Cv89xNvxLI2A5pMEALC0PCu37yPbM7DaNtaCpFSUK2FFxjwjVr78qUQEtdJpevRClKqMWXZDzzhSNSYUl5WCBU1N0xciqlN0M33NddfNwKs+cgxMeNBzs9XOHpsPvZ+NpSU9fgORFbyX8Y+z4sKh1kJUmy9bju14irFM+fZdN1unISH1Xrt5ZtEcR2iesDixBTluWWElEhXof0wZoSIc0yxAiUtFZPkRd3H+ffD3+RjU6+kywvQdm0GN9ux4/ONoLFt1I338zy1oZt6MSYIIRzleAYIAM8KezPwhAPsVE6iRwjhXKmXYowlmXTYubO340Hx32I37+ChWYrFOsmks4H3s0GUaxL8wpYv88q+R1mpe2w+MEYUhMw/e46RAzvwsilsqBHr0hKFq6gtr7Jw4ixBuYZwFL3bRsgP97E0Oc3q7BIm0q2lx+Zy6qryuHv4exwub+Hx0j5ybkBk2u1BnE96sXalKG67WpfSXRJC5AEPuE6oOCuiT0rHI96JaBCXDsAgNrjptMuuBgPap2Nz8CdPLlGvR6TTLlq3c+DCKHdVp/jp4W/xusEHWam7DI1vQTqKqaeOM7h3G8nuPDaIEFKs7XSRsTO9fHqW4pnzmCjCy6YYGB/DTSUonjtPbrCX7tEh6itlgkq9xQQvk6S8uIo/P8fbtn2Je44MsKT7SMmgZZTjNYZLE/dqF46UcvNCSK9BpOfXokhKJZ0tSjqmFVle9qGxAR7ozzI8nG99t/aQ+JdTk8sND6J9Wq+Pci2rUYpX9j/Gz236OpW6oG/7CMl8hqnvP0vfzi1k+gtrxI87QziKyA+ZPTzB0uQ0xmiygz1svn4cIQTnj05iIs3ixBQLE1OEfkgilybT20WyK4uQksE9W5C5At2yyNt3fJ5up0jduBvgRz9cW2NSDFFDQ4gE2z0rC46QalQqt6V+rLj0ylcMPWvGGq7Y+kQlIeJVsYlTS7iuapumG0W5KV7Sc5hfHv0ivm/o2jJEfqiHs489Q/eWQfKb+rFhBLJN1ypJdXGFxZNTBJUa0nXoGRuma+sQxckZ6qsVereP4GUz2DCiVixTL5Wp1HywFuko6qtVwnrA8Pgok4/XeV5ugvfs/Af+8OSbWA7zuFI3YG/bMszPRRNCRkLIsrWmIBBpKdWoI4Tok0I5a9jKpT2gmAGW/v4sQMc6arOtlgMWFqoNVHR9HzHxKzrBtbkJfmP7ZzBBQHqgj76xIc4+fpRMb4HuseGY+ADGIhre1NLkNMWzc9hI42XTDO4dw0l6zB2ZRLqKwT1bEVJi/QAhJemeHOm+rqbSBimxkWbm8ASpQpbh8S2cfXqSfdmz/NLoF/ijiTfFIZlYU6nP4RK1EUI2XgoH7JjECoe1wOvKAjBr6etPtwbYbM3Pi4tVwlB3TL/472tR7rb0LO/c8WlUVMPr7mZwzxamnn4WN52kf/cWbNRAHJVCeA5h3Wfm0EmWJ2ex2pAb7mXzDXuw1jJ7ZIJUd5a+HZsRVmC1iZlgLVYbbBhhIx1/DkKEjFXd/PGzpAo5erf0slL3uK7rFKPJKeraQzZswMVg56tta7lS0rRpgz4HgQPkL3FvRzMGXE8x0B8DYu3heNPDWFioEAS6lXbYTnzfuPR5pTjKZRmTKTCybyuzRyYRCIb3bWsYWUnkB9RLFaIgZHV2Eb9cQ3kOvWMj5EcHWZ6Ypl6pMrBrFCeVaM2YS/roMmaQl0uTG+xh4eQ5+nePUitVEZUV7h56hA9NDGNZi3ybTPjhszUEIp7K8V5l6GsEXdbhwi3/GzZrLa4rKRRSHd+1t2Kx1pgBzb/HUW5gHLJOjXdu/xSb3VlCN8vma7fFhrJaZ/jaHaAkOtTMHT/D1JPHmT9+hqWJafxyjUQuzebr9pAd6Ob84QmMNQyNj8XxQaTXCULjldenkDRtXahjG2Mtpal5hveOEYgkL+89xN2Dj7ASeiixPgXyh5wJAimE9FoeI3S3chevpkkpOnzktRePf/d93RF8SWHQVuFIzX8d+yzXpCeokWHL83ZQnJqnslRi5MAupOvgr1SYOXiC1dnFRrAV99G1qZ/N14+jw4jZZ06R6e2id9smhLFYYy6QekGbYyAlQjbSEB21ptQjTd/2TVSWVrDWMLB7C6t1hzdtepDrcscoR26DCU1VdNUkX9eEARG1fZGXQLWhOi7r/0MjoBBxJAgb+8JBoNuwn/gFIiv5ldEvcFPXYUpRii0HtlFdKlE8N8fItTtxUh5h1Wf2mVME1TpOwsU0IIe+3Vvo3zvG8plZilNzDOzZSra/GxtEawuMbd6YELGrZxvxQljzWZiYYmlyhuKZ8x1rAdJ16Nk6zNzxM2R68+RGBnB1jV/ddh95tUJgnNb68g9vD6yxmGob2JmX1pqytaZ6Nd0oJUleIkr0g6i1o0UAdePx1i33cVvv46wESTZfu43ID1g4cY6Ra3fgZeIUk9LMPFE9QLkOkR/ipRNsuXGcTG8X5w+dREjB4J4xHMeJVc4Gu2XalzyFEOhQszg5TSKbJlXIEfgBpdlFaGJUkSaRz5If7GVxYoqBXZsw6S42uef5xa1fRjfg+fX24AdqFmMbuT6N5khgwZor10JNrdBuYDd4EBAHWhWd5A3DD3DX4COUfZfhvaMIATOHTzF4zTaShRwIgb9apTxXRKo4yOra1M/mG8YJaz7nj50mO9BN99bhOAJW8XpRvF84DsyEWsszbjFFScoLRRLZFJXFFWYOnSSRSRLUfHTdX1OdUURupA8daUqzi4zsHcWXWW7rOcidA99lJUy0VBHQtn5wtc1ibdtKmqDuWGvmjdWyuUZ6eXAp9v2D8OJLcp6ncFQc5f5E/3d4y6b7KdclfTs2kcgkOfv4Mfp3bibT3w3GsHp+iaXJGSI/QHkOA7vHyA33sXTyHEHdZ3DPVpTngjHUVyqU54v45SrWGJSjcDMp0t050t05QNAuUEIKdBjFaKjnIoVooKnr3lEbClsGmH/2LPmhXlJdacqLAT+7+QEmqkMcqewko4KO9YOrcYoaKk8aa9bQZiuqjtbhtDFR0zBcUMFko2ZMvBf3Yi3hSaomzau6D/GLW/+Vum8ojA6TGyhw5tGjcZQ7OoSp+SydmaU0NY+1lmQ+w9A12wGYPXiCZFeGoa1j8Vi1YfnMLMtnZrENA29N7O9TXKU0PR/79Ns34WVSWK1BG7J9BRbLVZxkgkJXjtpKhUQ+jWogq60mBfWVMtneLvxyjerSCkiHlPL5la338Z6jP4dvM40sC2hBsVcVJVvHGlNoo/OStFbPNtNQiCviXbKLpvFqMqDT5Yt/apXiusIEv77tn4n8iOxwPz2jg5x74hjZ/gLduzYTFFeZPnSSlXNzABRGB9l0/R78cpW5Z0+TH+6lsGUIrMUYw/mjk6zOLtK1eQAn4ZLt76Z7bJhUIYuUEqliVHT64AlqxVVEXJ0LqRQ9o8OxUY8i0j05uob6QK8TIGPxyzXSPXkqC0WsNkhpqeoEOzKzvGnTtwi0aHhXXDHxOxf9dRGMF38PYOcdYTmno2DOWjsCJK9kbmltqdfXvKnWkl3j9939Ve7Z/TlkWMXr7WVg52amnjpOIpemf982SqdjSQ7rAW4qQd+OTWQGeyer/fAAABwCSURBVFsqZ2DPVpTrxlGr67AyOUN5bhnHc0nlsxRG+lGei3AdMIaFZ89SmllAurFxPn/kFCPP2xXPhEijHEVhy2DTgmKjOH1RtKWo6DCKHQDHob5SaSzmgMJQ0x4v6z3C52ZfzHJUwJFNFXfFM8CAkFoHJWtNui0WmJZah5OR9hesNd6VRHrNFPTl5TXHaS0xNeb2+HBIj1NBZrsY3jvGzMGTSEcxMD7GwjOTzD97lsgPSRVybL5hnEQuw8zTx1Gew9D4GEqqhpcj0X5IaXYJqSRu0iORSeFkUiydmub8oRNENR/Hc9fGoiRGaxZOnMVEayiqjXQLkmjSriWdDXUmndiQh20GutUvFkeEcWGqxjdX0hr9yDhBOeyx1q65j5YzzqbR68qLC5PnjImuV8qTsPFu8bUO4+W6hcWYAR2Gu+lVZPpx8l2M7N3M3LNnMMbQt3MzM99/llqpgpSSwuggPds2UZ5fYvX8EoXNg6S682sAXDxs/NVKTEgh6N2xCaEEiyfOkuzKMHPoPNWlMthG9ZQwQiiJdBTV5RIrU/N0jw3DRjk86yKrVrIWsbe+nr6hcajoFFJcnf/TtiATRJEfCYTX+FPVCjshz88cQevgySislxtENxcj/pp/DUtLtdbntrcCwMn1MHhgH8tnZggaevX8kVPUVip46SRD+7fTs32ExZPnqCyuMLhnK6muHDaI2rsBIQlrATqMkK5LIpchqPosTUwT1gL6d49idISTTJAb7IlRzwYBleNQXV7tgChaoxTNnKAWVoJyHYw2Lc8KG6dWGSQ5p8ZDy+OsRFkccTUueztUb4jCWtRGsAm0XXC00Qhrn4i0HwERcdnIDWdA01VtppoDHVC0aDxUJjKY/GZWpx/A6+ph5dwcVhvSPXkGxrcClumnT5Dp66J3eFNcc07rtkUXWuq1tS1Wa8JqnVQhS/fWISqLKwzs2crIgZ14mRQq4YG11JZXmTt6GhNFhHWfKAhxk16H2LbvZgHAdaieX0SHMTMTuTR+LcCVkFI1vrJwPZ+YuhVPxgld1naub1xJ0zosGqN7aHlA4pBylZFCCqywT4VBddbYzsTai3HVdeO0jU7IuTGkBrQUJgbBRNTLtRZhk/k0ynWYO3aG7i2DdI0MxLp5PUHWuLmG42jD0uQMAH27R9n0vJ24qQSp3hjrL03NU18pk+or0L11KO7LWCI/vMCpaGFESiKkZPHZs5Tnigzv30F9pUx1tU7C0Rjg/5m6nT+ZuJsIrxH/raGkl7MDzccKIYnCWiMDvVWh63FjLU53boR6fXU60sEhHfk7HSfpXIq71sZR8Pxchbn5CptG8k2XqhGlxfcGshcdaVRSgtFIJakur5Ib7kVISTKb3hA+7mCEtSRzaYSImVBdLjF7+BT54XiPb22ljDWG3GAvS6emsdYycmAn2f4CS5MzsWFtn6GizWY5iqhaZ+HUNF4mxdA12yienWNhYoasW+dMOMTfnn013y9tJ+2GxBUhm4kHl4cj2v9urQ3CsBoJ0dD/Fiz2YSw45VpRhmHNCCG/FASVV7luyrOWtY15G6iiZm7MqVNLDQY08nKsxTZwpuT261HpPFZHaxkTkW7UgLDoSOO4zhp203QR21/MWBLZNF4mhV+uIh2H6uIK1eUSAoEOw1glei6D+7Zx7vGj+JUaiUwqXn5UCjeVbAlFy+lxHSpzyxTPzdEzNkwyl2b66Qnqy8tkPMu3lp/PRydv49RSmoyzQt02YA4R25dmta72qiwXa3GmYFQMw6rTNmPOCG2fQIJjG/sAwHwz8CuT6XTPuIDkpfirlKBUCnn22UVufslYS6oaTwTAG9mL6tlCNDcBbrxrRUgR1zvfIE9oI60aqwlF99ZBZg9PtNZ0mwzP9PZSWymz8OxZhvbvYGB8K+mePNXiKjoIyfR3x9c3y6g1MukWjp8hCiOGr91BUK4x+dgxVFDBOik+NnULnz77AkaGsrz3/9qLFarFuXgPgcdDD53mwYcmSacvknDcrkmFJAhKZWP0ZilVMwL+mnBVHYF0sJBJdcsgrJ6JovpjYVjb7bpp4lELuT4uiyVW4DiKJ5+a5he4oZUJ0brGaISbILn9RkrnDqO8FNZGOIl4s72Qncl3HSrIUWvsaBjndE+erk0DFM+ex0m46CAiN9BD374x/MUVVmYWCco1enZuJixXWZyYwgLZge543UlbhOsSlKssTU6TzGfo27WF5dPnWTg1Q84LmNTD/PXJV/NMdQwbrPJj1+3kLW+5YUMBXFys8vVvnCSb9dal3DTp36F+6n69lGyoH9OAMb7YFAqn//wsC0NDRFGAEPJzfn31Ls/LeNbSZgs6V5WMsSQSiqNH55mfL9Pfn41z/5vEbEzN9L5bWX3oE4DFaEOqkEMHIcpzUa7TSjFsV3WrM4tEQQxJ5wZ64u+1oXfbMEGlRnWxhPIcqsslavNFUt05BrrzEEXUl0qEdR9/tUZuqIdMb1fshrou5bklVqbm6d02QiKb4txTJwlXimQTlq8tXs/Hz97GUpgnnwhYFpLxvYNAvAElTq+M3TIpBUePzeO5akPwst2hiI1vvRRFtZ7GEoAEO4fl/gZZjbM00I+xmFAHKOl9LQjKT+kouEkqJ29jkGhDcM5xJMvFGt9/Ot5pHuMu8UI4MtaZyb0vw+3bSlScRjkO6Z485fllEplknFi7bkPHwqlpEJDKZ6gWy4SnZ+ndPoLVFmFhYM9WFiamqMwX45WxQydJdmVxkwnq5Qp+qUoinyE/0kfvtpEYujYwf/w0JjKMHNhJvVTm1KPHcKMKocrwd2deyr+cfyGOtGTciCASZLMJnv+8YQBcV7XSGps7aM6eKeK6FxbwaGdCQ1ijWm25bq0dEILIxolwnxdKFgFpdGRk4Hj81sv3kkoWpBSiHob1f6zVV8qN9AnJBgvca+kphm8/ONmaGR2W32hUuovU/tuIKqtkh/pwkh7VpVKsGtqiU6EkfiUO7LxUkrmjp5GNBZOgUm9lOChHMTi+laF928j0dSGUorZSZmVmnrDqk8xnyPYV6NuxCZVK4K/WmDlyCi+dZHDvGMtn5zj3/QnStsyZcITfPf4zfPb8i0k6GjfeMEQYGjaN5Nm+rS3p2K4Z8HPnVlhYrDZ2/29M+CY9oshfCoJyXsYC6Yj4739rTSPgUwrn2YP/g98N78GVGGs0VvBJv77ys6lUIS+lyq65hLQ0UVMNNbfzzM2XGejPrq2CibV8oNwLf5rSt/8ef3UVwRDpni5KM4sxRBBEa9B4I/L0y3HSVCM5p2GK2l5QW9K9edI9OXSoifwgjnw9F8dzEE5cjnJ1ap7S+SX6to/gppKcfeoEUalINiH40sIL+Ptzt7ISZsk5AQaFsXFWt+9HPP/5w62yZe2VvKQUPH3wPKurPrlcYsOU+zb1Y2rVpcBaMyCEigNcuF846nsCMGFksI08UC8uqY+XyEghKIdh/WP1WrEuRAz7tQUPHc11FXNzFb794OnWIFuEikvDk9h2Pelrb6c+P8fciSl6xoaoFctUF1diNJMY609m0/FuFUcxsGcrQkl0GDaw/U5VZbVpwA2KRDZNsiuDm3BjCDqKmDt2mmpxlU0HdhIFEZOPHkWUl/BVlr8+fSd/derVVHWKtBOhbTN7by3p+BW37+wgKKxF/N9/eqZpSdf7+p26P6qXfH+10JD+poB92EYaE2n5zKDCr1djBsTFRl2sEaZaKxMG5hO1evGxKPLLcY39CyPVpv+ulOC++44BtnOZsg3syr3sPyITKcrnFynNLjI4vpXi2fNo3+/Idu4dG8FxHaIwwhpLz9bhNqT1Iuu/xmAjA47CL1WZPXKKZC7D4PhWFidnmTk0QZoKE8EWfufYz/DF8y8g7UQ4krUtSg0csV4PuXb/EDe2bTppvrOUgmKxxmOPT5FKbrzbs40+UaWyWMfaLDH04ABPT5fNP89XNZHFXDsHJ0785ZqBtUZiQk0+1ycdx0ZRWP/zamWxLISodz5kTTKshXTa5cmnZvjWA5NA26a25iwwhszel5K6/rUQVlicmEWHIfnhPuZPTrV2uTSDscLmAXq3DtG7PWbGRikn7ZIphEA4itLUPIuT0/RsGyHTV+DskydYPTtFJmH4/PyLeO+xNzNZHSbnBlgUprn7vvEeTZv26sZ22/Ydn82Z/b1HzzEzs4rrXliZsTUeKQmCylLglwuNuCOGai0f2JQVZiAtpeiaIyRGAVo9HTv6RwhHIqRjEskUluC+ur/yNd9fNc29TRcm2a49+B8++fQFUtN+fe9r70FlezFRwPmjZ8j2F3CTHstnZluqCGvXXNN1GNH6zRBNLMdamDt+mnqpwsiBXYT1gNOPHkVWl6mIPH8++Vo+cvpV+CZBUuk2lRMbtTioE639zq+4fUfrPdYz+74vHwc6tcEFYzSmXinPe0KIJE1wEx5UyvkHN6kwVhpRK3D08Ic6GQAgHRAyxBiksA5GR79dKS+c0yaqrydEc2DGxHsFHntsim89cKr13VpSlMLqCG9wB4U7346ry+i6z/mjp+kdG6G2XKa2vNoIwLgAONvoRSGGE+orFWYOnSTVlWVg9yjzJ6eYPXyKtKhxrD7Ge4//DF+Zv6Glckybylkf2/h+xM+95Tqy2URH4aim8T1yZI7vfPcs6bTX8X7tTQhJtbpY1tovNLLwHIvFCnuPNhFh3UiMxNbSrXs6asYtzD1M/8DNIKwV0pHWREWjdclac0cymadjNQc6OK+1YWJiide8eryVtt4aZAMfSu24kcmTs4TnDqKiAJVI0L25n4WT58j0dsU4kTEXMGH9s4RSrJybY3V2kb4dm0lkUpz7/kmCxUWSCctn517EX556LYthFxknxKKwHSpnLcmqWSnlpptGecdvvPQCGbA2ng1/+dePcPjI3AU7ftoNbxhUZ8uVubyUyoml30rgzyTyowIhu4O08Z2Ao20HAl1QNbEr/xKchEJYZaUUMvTLT1nsmJBqv+dlnbb6TR0D8DyHc1MlvITDDddvQuv28l9tewd2vpJvPXSO7dGT1FYDsgMFlOuwMr1Adqg3hoib/5rVbhvrA8JRGG2YP34GE0UM7ttOtbjK1MFTJHSZoi3wN2dexT/PvCTexyUtxiqguYdZ0K5CpIz1fi6X4I/+x6soFFIYE9eOa0q/UpKnn57hz//nIx3EX696jDHF0sqUAdslhGgGXRMm5A0IGwK25NSQUrIwt1ay7AIGLC09RG/PTRDHYVZIgbSJr0e68grHTQ04TsK1trOgUdMge57i4KFZXvCCzQwN5joK4UkpMdpQyEoye2/m4ENPMhIdpVa19O/aTL1Upjg1R1TzqS2VqC6V0H6IcmPYQrgOteUS88+eITfYQ/eWQeZOTLF0apqMG3Cosp0PTryBJ1d2kXEa8HGbymntR2sjvrUx1PD+972C654/0lFerf3dfu/3v8GZs8W2mnGdQoXFlErTvjF+rxCy4akIAbxBKHG8kYpolRQcPdRZP3TDI0wWFh5mYPBmsAYhlIx0NcTaB7Su3+klshkpHXcjA6lkXP/z6YPnufNVuzsK4a0xQdPfk8TddTPFgw/gLU8QWZe+bcNxBkPCxfHc2CsJQkozi9RLFfxSmcpiif6dm3ETHme/f5JweYlEQvDPszfz16d/kpUwR1oFF1U57UbXWqhUAu55xy289jV7O4KuWKXG0v+J/+8p/vGTT5PLJdoqwbS7pyoqr55fDILV3oazEjXo+kEEHwEhtXKNNIZnNjjg4aJnyLjOHaTSERZjhXQcY6NFY6KndOTfmUjmhBAyccE0tJZEwmF6usTs+TK337ajgaGzjgkRvf1dZK69g9qJ71A7dQg310Uim0LXA6yNw/RMbxe5ge4Y+w9CBnZvobJYYvrQKZKmzKLp5a8m7+ILcy9GCYMj9QUqp13qhRA4jiQI4tM57n3nS3nTGw+0hKQp8c1ad0ePzfO7v3d/R0HwduMrpYqqlYXpWm1pQEolrbWREMIBHujrHf6Z0tIiUknrRBoruXTd0PVtdfVb9PXe3AiUjJE4jjXRaa2j41r7dyYSeSmEuGAmNCGKw0fm8P2Im1442kAN25mgMDoi2VUgd+Nd6JVZik8+wOrsEtVijcpCkcpikdXZRarLJVJdWXID3cyfmGJ5coa0G/JkZRd/MvF6DpZ3kFH1xvqxbBA8lvZ2b6dZIHx11adQSPL+972C17x6vEOlAK3KvsWVOr/+9i+yuFjtKFfZRnxq1aWFanVhoGl0hRCOtfYMljuqtXJFOk6zouCG0n9JBgAsLDzEQP+L8ZIpTLhqhEpKbcLjxkRndRT+eCKRi9pnQnuMkEgovvvoORwlWuUM1jPBGo1KpMle/1qcnhHCcwex5XlUwkO6iVga6yGVhWWK08vocgnHlXxq9hb+1+nXUoqypJWPQdC+4bvdSWiqlVotPmPm1pdt548+8CoOXDvUUcS7SXylJGGoeec9X+LQofOtMjwXSv7iUrW60CuEVNBAOq0tWezLhRCTgBQIg+CixL8sAwDm5x+mq/smfOvgiZRFWKlNeEjr8FQU1V/uJXKRlCrVchFbA433EHznu2dBCG68YVPLXW0aZiFlY7XKktz6PLIveD1COQSzJzCr841kKRfhuGSdOnO6l7+YvJv75l+AKw2uMBjiautNKZZStogeRYZKJcRYy/79g7zz7S/ll3/pheTziQuI31Q7QaB5xz1f5OFHzjTKq7WIH1evFTKqVubnqtXFXimVohFsYW1grb1DCPGEAEcitEDESWILj1yUvleW3gXs3XcP6AjpJNGmLqPIN1K6r3K99B/nuzaNOE6ip1HqpuM4EyFgddXndXdfw2+95+Ut16+9enqcwaARKg4zouIslcc/T/mxzxHOHCOorPK94i7+bvbVzEaD5Fy/sUC+dr+1sQRHUXyoQyrp0N+X4frrN/HKH9/Fi1802hKO5kxs3tusmj6/UOG//dZXeOzxKfL5RKMkTXsELoLy6uxcvb4ytObrt05/vQPE/ULgCCEiLETWcOzwpU/RuGIGNJlgjEYk0+DXpDaBQYh9rkr+aTY/vC+RyA1sdKaMlIKVUp2bXrCF97z7Vka3FLDWthm/eCjxe8TRc5M4ZvYoZw8f5u8f7eXUmQrzswtUqrp1rlhTipMJh96+NCPDeXbs6GF8Tz8Hrh2iq6t1FHGH1LcTHuDJp6Z53+/dz9lzRXK5REd9UCEkxuq51dJMFAaVIRkvVrRyqKyxPyGVuA9w3IQTJYBiPeT4ZYh/1QwA2LPvXuaiMiPSQ0vlRLoeCaEKUjgfzmT6np/J9vdZa/oa+rJ1cqmUgkoloKsrya/80gt5w+v3AxufGUO8+6I1I9a+NtTqmlotpFoLCXyN6yoSCUUm45FIOBdsHNmo/3bGhaHmo//nMT7+/z6J1rZVUhOacYA0QVCZXC3NJK3VIw10OBBCeNbasrW8Tkq+JgTOln256NDnT5Id6+foM1d2RPpVMwBgz7534Cq3cWCzlZEOjOfulVqf+HPPy7wmmxvGcbzRRt3p1rJm08DV6xEvftEov/AfbmgZaLjwHJmY6DaeGULSfhLSxVpTsoXoBNSaqqfdpbz/Gyf52P/9OAcPnSeb9ZByrV5o46jbcrW6OFevLfeByAshjLXWIHCwHLGWnxRSnJDg9A8lo+OHK+S7BEev4nz6H4gBEB9vJUWcu48QUofGRKaK56XfKYW6J5XqKaYzvVlgpH3/QXw8oaBcCXCU5JZbxvj3/+4A11030uG9dEph57PXLwXG1114TdPFbCd6vR7x8COn+fQ/HeK7j55DSdGq6NXEdIAgCMqzlfK8p3Uw1FhUicA6WIHFftIY/oOU1IUQjpeQ0ZOPfYA94/dy/NiP4CC3i7U9e+5FOE1wRGBtBNYgpXOLxf6NUl5fJjsw53nZUbDZJiNiZ0VijKVSCfA8xd69A9xx+w5e9rLtHQfvtLcmkaB9XaL58+IHuYWh5tjxBR5+5Axfv/8EJ04uIaBVv7rp4wshTRT5S5XyfDUIygNCyKQQwtBYVGk8+zes5M+EFnGShBRGCEEQhBw/+qGrpuEPxYBm23vNPY0lSxEne1kbuW5XNoxWPmwtb3Hd1Jl0pq/keunNWFtoKwxlpJTSGEu9HhJFhu7uFDt39vK8A8Ncu3+Q7dt66O1Nt07VuFyLIkOtFnLmTJFnTyzy7IlFnnxymtNnilQqQeNIk9jItxNeR/5Ctbpc9/1SHmyhMRMi21hMt/C0RfySgu8IadFmDbYwxnD0Bzxp+zlhAMTHn3zp9Tdx12e+izZWWiENJkBI76es0X8KjDpu6ng601t23dSYELLHWtO+5GeEEDI+xDPCDzSppEs67ZLPJdi0Kc9A4yzJZNIhlXIRIgbTgiA2zIuLVebmKiwuVilXAiqVAK0NyaTTPGPMWGtlM1izlrrWQbFWXa76fqlgrelZUzcxlo+lKOD9Opr/M+n0G4mQEdY0S7NKQg4f/tMfmG7PGQMAxvfdg6NkfMysBSWNNEYYQSppRf3d1pq3Y8kqx5vwEvlyIpFNK+UNCSGa6okmXCyFMNpYGZ+GFPv3WrcfY9uOWMY/lZIo1fpp4oy92B2OiR57MMZEpSCoVAN/lTCs5a01BSEVIia8hJhJwEewvA/JNGENnJRMWMyWCI65/ECnp65vzykDAEZG3kuht4o2gnrgkkkEUkcYpUAINWSteZfF/ud4S5QsOU7ynJfISs9NI5U31Cjl20iHaRKZjp9rOM+FBjn+vZlDIwACa01kdFQMw1oQBBUnDCtJY3ReCOE1VQ3grN3Lv1r4bSV4wsQ+nIOxUbNHLQRHnwPiw4+AAc22Z/xdKBXXeDZWIoWQlsah8lZuRvI2i/15rBloeB9VKdWk46ZwnWRWKq+qHC8rheqBlk8OsUvrNP4ZYuJFTYZZax1rTVXrcEnrIKkj3wnDalHraMha3Vir7cywaKjBIvBprP1bKcT3NKAk0hiMFQ33WEuOXMVJqVfSfmQMaLbxa96JkgKrRbMal7QWg7QYbEEi7xLwZuAWa22yQUQjENU4q0CUhZRVKR2kdJFSeQKRRYg81gZgS8boqjERxmhprU5aa7Jt9iXdYFxHQdrG3+rAEyD+CewnEGIWa1FxPq98ZmqT2bRllpyNqJezTE7+7nNOnx85A5pt/Jp76DJpwkhQ+/97O3teCKIoDD/vmVm7xlqtQqWQ2I6GWvhL/Aa934MfIDqRiELUChHGfsw9RzEzvhuR3ae8xS3OSW7yvufjdkqwsMbgar37NYJ9wQFiD1j9WvT+2QzVonrmlO+F9i/E+w33wDlw5qHzos/duKQZzDMDJ4QXNmXsOdPIuLk6ZlbMLQEtm8NDbNolsgrPKxrB6u6NnZ2JVNE3xbbQLsQWsCFpnXrdY/v8/CqLAyoFVdTC6Rm4B91AXFMH/tKkkUf9HcrO/goXp48WIYeKxd4So8mEyesLt7cnM4/H3BPQMhwekboV+UOBD8bNaRiZiIRDYAKTMUpT64g+oYHIBq4oBAsRyvnYd2RITsSTiGdX9miRykk5Hi0u9/BPDbaZyZIHHnIRpASRhGXxZyX7X94Ai54Ib9+tA9QAAAAASUVORK5CYII=;" vertex="1" parent="UEzPUAAOIrF-is8g5C7q-175">
          <mxGeometry x="480" y="7" width="80" height="80" as="geometry" />
        </mxCell>
        <mxCell id="DsdZXftXb6FMQTqhYJn2-28" value="" style="shape=image;verticalLabelPosition=bottom;labelBackgroundColor=default;verticalAlign=top;aspect=fixed;imageAspect=0;image=data:image/png,iVBORw0KGgoAAAANSUhEUgAAAGAAAABgCAYAAADimHc4AAAACXBIWXMAAA7EAAAOxAGVKw4bAAAgAElEQVR4nN19aWBcR5XuV3WXXtVqSa3WYlndlld5SezEzuLYlpzFkAAJgccQBgjJYwKB8CCECTzWYYCQYfICE0iAsATiMJOXlYQhC3ZiW7YTO4nX2LHlvVu2ZUndUrdavd6lan60JHfr3pa6tTgO3y913bpVpTq1nPOdU3UJzjNU+2WEAsrw7/ktZVYOVsk5nACshMA99IxzaADiAEAI4gDioYDaFw4q2lAer19GT0555xvIu92AoQ7y+GRU+2Uv53zhglbXfMb0C0HgpyLxCgJqAcRACBME0OFWczAAaV2HFZxTzmFnOrqYzjvA0emQxL07Xu0/UG2V9xw6nIj3BBR4fTJ6guePQN4VAQx1+qIr3dA0danHJ13m8curBYlcJAhgooW6BAluQpAmlFAA9qJaOigQzjg4h1VTeI+u8KSuQdFVvqPRad227qW+VyJB7XBXII1avxVdgfQU/7ej45wKwOuXwThQ7ZebPD7xOo9PvkGUyXzJRmVRhpNSQkEgg09ipQQAR5rpHJrCY2qaJ3UVO0InlJd6T6ovhwJKJ+dA+F2aFedEAF6/DACobJSWN7c4bhUkcqVsoy7JAjuhxAqAnot2DIIxxtNamseUFI/pGl5sb4v/IdKhv83Azvl+MaUCqPVbwcBQ2Shd1tzi+IpkIcstDuoRJCJO+kgfHxRd4Uo6wXo0hb/S3pb4fSSov6lBRzionpMGTIkAqn0yODiq/fL8eSsd35CspNVaRj1UOOejvVgwXePJTJyF1Qz/66EtyftCAaWDAFM+I4TJLnBhaxniUd3dckvVXd4m+T5HhXCRxUE9hBIZ54HWVQCEUiJLVuoSZdJcUS990FYmEBC8QwhRk1F96iqerIKq/TIETjFntW2Fp1G61+IU5ljsxA1Anqw6ziGUTJLFMnG2I9Epf23n+u4DIhGmRGOalBlQe4UVVZWidemN5Xc6q4R7HRVCk2QhFZNV/rsAQZSIXbKSWmrVr7WVCSlQvpdz8GQ/m9yKJlpAc4sT8Q7Ne/H1rt9ZHOQmW5lQO6jZvOdBKJFlK3XZy4XL3PXSvI6T6S2z5jnT3YHM5NUxkZebVzlQ7bdc4PGLv7CXCxeIFuLC+bnJThhqhvel+vXtmx+N3Fbtt3QebItPSrnjmgG1fivsCwka/bZW70zpd85KoVmQiAvn7yY7YQgisYkyqZs2z3oFONljL6ddk6GqliyAWn92dZm72HF9zSz5545KYToViHPCLXkPgApElqykWrbT1ZzhhOLEUTulSPSPX0sqWQDuhSJmLbZ9uGa2/HOHm9ZSShzjrv1dhEhlLGxsxTUX/hNm1y3DwVOvFfUeoUSSrMQu2+nVFkKjBzcn9kykHSUtGfNWOeD1yau8s+U/ONxCPaF4T2221a5GLGpcjeaGFVgwfSVscnbi/uyvN+Pt4IaSyuKMxxMRluw+pvzrlrWRX463TUULoLnFgWqfdWF1k/C4o1JopJS4xlvpuUK1y4fZdcswp/5SzJ92BTyuRhAC5P7bffFO/OCpD6A/2VNy+YzxWLxXT0InDzz7o+5/G08bxWIyXdDqgkb1Wo9feNhRITScj51fZq1CY/UCzPAuxsyai+D3XoByu9fQ4SMRDO0bV+cDAKXE5agQkOjTv7Hy5orwlrWR35VaxpgC8PgknMmk5ZVXux+wu4WFVHh3O98qOVHrbkJ95RzUV8xGg6cZDZXzUOmsBwhASlTEdp9YN6H2CCJx2cqFHu8M3L/y5or0lrWRP5Xy/pgCIIRgxVXuuyxOukqUp17bkUUb3I4aVDmnoapsGirLpqHa1QhvuR9elw/ldu9gRwMT1XrTagLB0L4Jt1myEI9uo10ev/TAypsrAgfb4luLVVFHFUBzixMen7hctJDPWxzUAxMjyy67YLO4ABNumXMOl80Di2QHQFDhqAGlItyOGkiCBW5HDeyWcrhsVSh31KDCXgOLNKhUjWM0j4SipdEdPY4z0WOYXbsUFc66vOeh/iBO9x2GKMgQqYS0mjAth1IRFtGOlBIrVBW1OqlXV3m02i891huwrgwH1VPFtLGgADw+CaGA4mxusd9rK6eVhfKm1QTKHV401VyEmTVLUF8xB5Vl9ahw1kGg2VfOduPk2WnxdATxdASR+Bn0J0OIJrsRjXchEj+D0MBJhGMnMZDuBQBYJAe+9ZHnDAI42rUDOlOxqvkTuGX1fcPpKWUAKWUAFc46EBCoehoPvHALDpzaOlqTRJuLyvE+3TOv1f7bUDBzYyiojMneFRQAJQRXfNp9l9VJ51OBuAo5TxjXcSZyFGciR/Fa+5PD6QQEFc46VJU1QBIsqHDUQBKsKHd4QcjYgkhlBpDI9INzHZFEN3SmIZrshqKmEE10gZfgzXHZqlDprDWk7z/ZBgCYP31lXpvsFhfslrNb3e4T68bqfAAAFYjL6hB6UnH96hU3u//5zz/s+dFY75gKoNovo6pRmidK5FbZTgt2/mjg4OiLd6Iv3ln6y5OMCkctnNbKvLSBVB9O9x0GJQISmSjORI5CEq0A53DaKmEdXApTSgx/3fnzouuS7aRSSZOYrvG7V91c8WI4qOw60Ga+tAEmAqj1WVHjc6Bplfhtq4u+V/n8PDRUNRvSegdOIdQfBOM6Hmv71nC6QCV8/cNPYk7dJQCyo/9Ub3sp1Yk2J2XxqC57/NJDB9sSV3n8UjIcMN+UTZlLt4+3SlasEqS/D45nVt0yQ1owtB+MGzmcalcjfJ4FAABFS2HD/rUl1ydYiFuUSRzAZfNa7P9b5IUZH4MAGGG00id+1eqkleDFGWrnMygRUDli8wWAA6e2mOafWXPRsCZ2tGsnjnXtLL1SDtHqpJQD8Wq//M1Kv9gwFBliaF/uD49PRmWjdJlkJYupSOyl13z+wW4ph9tek5eWVhPoih4zzb9kxprhv7cefGLc9QoScYkySYKgfl6L/WuF8uWNcEKA5lXOz1sc1AX+9+FYKbdXo6psWl5aJN6F7v4ThrwumweN1QsBAL0Dp/HOyS2YXtWM1oU3I5YMGfKLgoTe2GlsOmBi/HKIVgeV4316mhB8qson/QLA8ZFRFsMCqPVbUeETmkQZywWJOM+DmJ1JgdtRC1HIn/7hgZPIqElDXm+5H56y6QCA9tOvYyDdi0+3/BhLZ15nWnZKGcBPnvtYwboFidgFiaSZzj3NLY47tq6NGmbCsAB0MCxcVXG9ZOOeYtb+y+d8BHOnXWZITysJPLXtx9DZ5AY2ecqm44MX/x9TW27j/scKUgr1lbMNae0FuP8Fg/YA4wxvHHkeNeV+LGxsKdimre1PjU5lEMiyjYRTMe4iFDd5fNL9FLQzN7oit6NlnbAb7VahqKXn4KnXcNOKf4HL5jE805iCp7fdW0wxRYESAZ+75heYbaLNtJ9+HR3hdwq+21A5L+83B0fQJD8hFLMHVc++gdM40bMXdosLL+/+NQQqwu2ohd3iwsVN1wIAYqlerN87BvnJAclK3Ok4ogDqF61y/68Nj4XyjAoKDBteF4gW+ClFUWxnNNmNRzZ8DZwb16prF38B86YtL6aYovChpV8x7fx4OoLfvPJlcF44VMTjmp73O5nuR9/AaUO+crsXdRXZ2XK8Zw/i6T709Afw/Fs/xbNv/Dse2XAXjp55azj/+r2/QygWHLPthBKrIBHGGaAS9TMYYVdRABBA0dzivFK2Ua9JfxbE3sAreGXfI4Z0SgXcdvUDcFjcJm+Vhlm1F+NDS79iSOec448bv45I/EzBd21ymWGGRpPdCMU6DHmrnPXD6urewCuG5xbRjktnfxhA1omz+eDjxf0DHFS20qEDIwurGqWlHp80/JgCgAwJIHy1IKLk0K+nXr8HHeEDhvRKZz1uWf3vpRaXB5tchs9d8+AwqZeLtgN/ws7jL476vt3iQpktn4Loi5+BxozxnnPqLwWQnVXHu3cbnjfVLIGvehGA7J5jphUVgijDTgj6AMjNrY6P5e5jotcvw97ImgSRzCGjkG6FoOoZPLzuDnzvYy/CItnyni2d+QGsmv+P2Hzgv0ordBCfWnUPql2NhvTOyBE8vvUHY75vk11wWCry0gI95j70Gd4lALIURU9/wPD8ktk3gBCCWCqMN448D4tox+IZa0AJRSTRlbcUE0LgtnvRGz+NI2feAhGIlYpE1FUOQrEGgB1AEgDEnoCC+S2OOaJMZALQ8WifnZHDeOL1H+DmFuPG+4kV38fhzu3oih4vqczL53wEy+d+1JCualmBK5pRjRwJt90LUZDy0sx4HZvsQn3lLADAkTM7DBRFub16WBt64/BzCMWCuPGSu3H9sjsL1p1S4vjpf38SAEAAURBJh67xJs4xy9MoL6Qgb/YElOwSVNEoLZVk4ill/R+JjfvXmi4JVsmBz13zIEQqmbxlDk/ZdHxq1T2mz57efu+oWk8uRvL/OtPQZ7JnuO3e4ZnWftqoos7wLoanrAEpJY6t7U/CU9aAKxd9pmC9nHO8sPNBHO3aMfgbkCykEhwgBPLCVudlQwYZHeQoltBxrP8j8ceNXzf9B2d4L8SNl95dVBlZlfPBPD5+CPuCG7FuLNUvB56yhrzf/ckQwgNGR1Vl2TTIog2JdBSdkaOG58tmfQgAcPD0a+gIvwO3oxZ7Auuxtf1JbG1/ElsOPoFDnduH878dfBUv7c6PVKEiZABRzgAd/NrqQW5IrJ1hsVKKRkLJhIm3eDqC367/Mu6+4f+D0nwG8P2Lb8f+jjYcNBlhubh+6Z2YXbfUkN6fDOH3G74KM9dnIVSV5augiUwUA6leQ75ZtRcDACKJM4b1v9xejTn1l0JnGjbuexRA1pM2NLqBbKDA3TdkeaNIvAtr275lWMYoJRoVwJgOUIJZ1T6LOxRQolTRWS0ViYcQTAr13N75Ol7Y9ZAhnVIB/3T1A3BaK0zeymJW7VJ8cOmXDemcMzyy4S70l6B5AIDLnq+CxpI9phZ6Q1XWWOuMHDE8n141H56yBpzuO4RDnW+Y1nPdRXegqWYxNF3FE6//AH1xo50BAjuhWXqfcdQyzhq8fhkUQCUhRDO+MX48/9b9pjRupbMOn2n9iek7NtlVUOVc//YjJUeuiVSGw1Kel9YdDRjySYIFlc4sWXei26ghXTwza/m+1v4UVN24Ss+uW4b3Lb4NALD9yJ/xxpHnzRtEIFKKPgCgFM76Jkvj0CbsogImlXrWmYZfr/8SkhljFMHSmR9Ay/xPGtI/3XIPqkdYrQDQEX4HT2/7ccltkCUbrFL+pO6MHDHkK7NVodJZD8aZgaKwSHbM8C5GLBnG7hN/M7xrkRz4xIrvQxZt6IoexxOv/bBgewgAIpA4SHZTdk+X5gAAXdBa5qEikSeb/AzHOvDY5m+ZPrtpxb+g1t00/PvyOR/B5XM+YsiXUZN4eN0dUPXSD0RIggXyCLvEjDpwWCvgslUhmYka/Nc15TPQUDUfR868aWo9X7XoFszwLoaipfFfW76HeLqvYHs4AEJBwbMC4ODNAEAZ51YqYkro5+2H/4zX2p8ypFslBz5/zUMQqQSPq7GgyvnE6z80HbXFwG5xoSzHEa/pCuLpiCFfNlZJQH8ihHDsZN6zedOWgxCCNhNDss49E9ct+SKA7PK0r2PjmG0aPCU6KA00AIAIzt2UTF2U8582fwez6pahptyfl+73XoCPXvZ/MatuqanKufP4S9g4Dn/sECgR8/aTlBJHIh015KuryBpgkUSXYQOe37AC4VhHnsaTLVvA9cvugsPqRlf0OJ59o3TKZYj0nHKvV1qN4+F1X4SmG/mX9y+5HbNqjSpnJH4Gf9xYnN1QCFbJnueISSoxDJgsEXXurABO9x3KSy+3e9FQNQ97AuuRUgbyns2ddjmWzrwOmq7i6W33jrr0DCNrhNn52d+u+a1l8jlxO57o2Yvn3vx/ReVlTMdvX/mK6XJRCgjJ/9cyasLUC1YxGLAVDO3PS/eW+1Fu9xqCdyXRihuW3glRkPHm0b+MSQjmtwni8FJPAJxLv++Lu36JAyfNIxFy8dLuX41prBWDCkd+JFxaiRuWGJFKcFgqwDhDNNmd92xu/aUIxU4aVNMLfVdh7rTLEU1045ntJRwJIABjiI0MCqQgJMoYpvyGCg6O3776FVNLdAjHu3fjz0XOlFIRS4UNaVbZCYfVjbQyYKCXZ9ctw76ODcjkkH4W0Y5rl3wBnHP8Zcd/TErUHyUECtMQOxfnG6OJbrzW/nTB5y/veXjSfclDMHPcWCQH7LILiUws75CGy+ZBrXsW9oxwzCzyrUZTzRIc7tyOzQeKdMjkgOvcMNDpgU3xMGNcORfnSxuqmkdlET++/DuT4kUDzq7tQ4hnjBqQLFphlR1IKbE8o9HtqAXnDIGevcNpQ6M/oybx1PZ7Sx4oBABn0EYOdAogzvSpX4Jk0Ybb1zwEWSys8VaVNeDWnDDxiUAaUU800WXIY5WckEUbYslwHnk2w3shguH9edrPnPpL0VSzBNsOPzu+aDkATOf2HHsrGQqoGgXQwxlnUx0G9PErvodplXPHzHfxzOtw5aJbJr1+XTfSXTa5DADQM8JCbm64AjuPndVuKBGw5sLbEE104y9v/ce46uccYBz1OUlaKJBhlBISZjri4BP3BxTCRU3vx+oFnzak68ycA/z48u9iuklE80RgtgkPCSB3dkiCBWW2KhzvOesXnu5pxrxpl+Nve36DSKJwEMCo4IhxnWcNBgIwHR0AQPuCWpzp/DhnfEoEUOGow62r7zM9lPH41u/jzSN/MaTLohW3v+9Xg0ebpg5D54RzKYhyuxeqnslLu2rRrejpDxYfCWECxjllg9Ezg11xFABoVyANzrGfscnxB+SCEIrbrn7AcDgCyMbdv7rvD3i07RsIjeBgAKC+Yjb+ccXYjvdCyF1ydKblqZNDGPIXJHI26OryRnTkGGUVjjosalyNF3b9AslM/7jbwzSAs+ydp4QAdXbLPgCg1X4ZvR3qW1qahydbFf3ARV9Cc8MVhvRooht/2PjPAIBkJoaH191hqlWsnH8TLhuMxSkVvTmuR8Y0KJr5BNd0JY8jaqyan+deXOy/Bv3JHuw89tK42gEAIICa4T2EZA1fzqFteKnvlNcvg4YCCkIB5YCmGXXUiaCpZgluWHaXIZ1xht+9emeeQXaseyeee/N+k3YT3Nz6b/COIPImE4qWQlo9e/WM21mHk+GDALL7waVzbsDzb/3UdAYVDQ6Nadyb8zsMoHM4KoJSEtBVfpQzXvAcZimwyWVZulkwRkKs2/MbvHNysyH9hZ0PmlIVNrkMt695qKSoimIhCVaouoKMmgKQPZ4EzhFLZa3iuorZkAQL3g6OTTWPBs54Us8d4AQBkYqngEE29MCmuMZ1slVXJ+dEzKdW3QNvuc+QHgztwzPbzV2SQ1RFzISqmOFdjI9e9s2S2lAMTVDhrENKiQ0fZ61w1Ob5Hy6dfQM27F87YetcU8GG1n8QgDPs2r8pe/cZBbJnAw5ujv9NSbFwESdIR8XyuR81DajKqEn8et0dpmGBQ4gmuvHIq181DbZ93+LbcIHvyqLboXPdNHA4L4+uQmc6dD3bwXaLC72DgbuyaEOlsw47jv616DpNQQAlxTQM9jUhQF+H/tJQWMowGxoOqns0hYc5w7gXu2qXr6B36/Gt3y94LCgXe4Ovmsb+EELx2at+BrejxuQtIzJqAoqWGjVPOH4KGTUJbXCEW0T7sNtyumc+jnXvmtjaj+y1NrqaMxA4unpOpN8e+kkBoCuQhkhoEgxPqAob17WAAhVx+5qHho2bXOw49gLaDvxn0WU9vf1e04MPLpsHn7v65wau3wxpNYFk4asFAGDwFPxZf3O5wzscuFXvno1dx18uus2FoGWQ5Ay5evieg5sTHUNX9A//JzoYDrQl/qokeRgEJQvhxkvuRlPNEkN6X7wTf9z49dIarSv41bovIq0YL8ZrbliRPSkzBjJqAimTqIxcEJA83T6tJsA5gyRYwMEmg27WlBQTMbT8UCB0Qn1i6No3IEcAoYCC9s2JA5rC32QlqqTN067AtUu+YEhnTMdv1n85z9ApFt3R4/jTlu+aPrth2V2mZ39zkVYSwy5IQZCHT77nQmfaMB1ikRzDkQ8ue7XBQzYe6BpPagrPZQW7wh3KptwAiLy5XOuzInZS+1UmwfuK3Yyd1krcdvUDhlBEAHhx90M41LltPG0HALzW/iS2HXrGkC5QEbdf89Co1DXjOqKJrJeLEgpJsBjy9MZPD49ySbBAHTTWJMFiIOjGAaYkeRIYjLnKaj8bQkEl0BU8axTmCYARhrc3xV9XUmw/03lRu8+tq+8zRCEDwLHuXabGVal4bPO3TeP1q8qm4dYrR/ee5W76ZlxULhmo6ZlhnzHjOjIFrq4pFkznSSXNhsksQpCOndR+O/LKgjwBDIZMK71B7f50nPeNRU1cufAzuKjp/Yb0lDKAh9d9qSDbWQpSygB+VSCq4uKma3HVolsLvns8x59rpj31J3ugDW7CjDMklRgEKqI/Mb4rzHKRSfA4eM55O44d+zYlto48MW+qThzZklinpNh2pvGC18NOq5yLj19hvkb/5+bvFnWArVgEevYWjL35h+XfwfSq+abP+uKdw4IzcwQpWgpnBsPRFS0FzllB4q4UMI1HlRQb7nxCwEIB9X4Oro08qG0QQCigQOcc7W2Je1MxFgZgGMaSYMXta34JWbSNfJSNhjtkjIabKF7e/Wvs79hkSJdFK75QgLqOxM8Mb6xuh3GZzKhJpEw0rQmBQEsNsDRwNt6WAzvaNydM41dMZwAFRSio7tIV8qSaMc6Cf1j+neGQ7lyEYifzrn6ZTGSpijtNQ9TrKmbhkyuNdyMlMlGEB7JU98jDGkCWiZ1o/NFIqCnepylniTdCoIUD6k8AKCGTj0GYcj9dgTSq/TI2r+39yapbKq4WPcJCQogMZC+/iKd7TTfY3SfWjWn8TASxZAgPvvRZLJhufnrdZfMYPF/tp7dhUeNqlNuqDfkTmSgiicm7UIoznkwN6CO/EvLK4c2J5wq9U5B8CwUUeHxSX/iE9m1RIr+3uwUvADGZ6cfzb/1s0hpdKo527cTREpziB0+9Dp3pcNoqIFApj1jjnKGnf5L2KgItGWNRzs76fQlF7OCmxHc5wMxGPzBGbCghBAfaBl6WFHmtkmIT25neJXRFj6ErehQ22TXq6ZyJQkmwPi2Tw/kTwMFtPw8FlR10lG4eVQChgAKRCFi3tvtf0zG2Xdcmx19wLpFSYjjUud300PZkQdd4ODXA7MhfUfa89OiZ+0SM/umTMVmtrkAaHp+UPrYl89lkVO+YKuf9VGLboWezF8Lai2NSSwFjPJaM6nbgrE+dEMQHgrgtHFRiY313pqjr68NBFYSTWJlb2inayAdkGykr6u7J8wSxVC8WNKxEf6rH9BqC8YJzKMkISzM9x+AiYOGA8vVNa3v/XEwZRX8/wFkhoiuYPm13iYdlB10h26gT75HPlTCuQ2cqZtddgl0nJk4xA1nHeiKiR3SNnz2KSQDCyaN7/5L8TrxfKyrWrWgBxKMaHG4BoYByxOYUei0Oeolsow68R4TQ0x/EIl8rdp9YPxnFKcl+PaQr/GwAavY+602bH4t+uieYKfpQW0lf0EhGddjdAsJB9W2bU+izOOjlso1aSi3n3YDOVIRiHeCcjekpGw2cQ0lE9Ghe5wMAQfuWRyMfCgfVIo7LnEXJHZfszwrBEqveW7UgFVCSpFWyEIEQMvlhC5OMWCo8wc7n8USEDehqjrqZxdFwh3otgJOlfthnXCM32a9DtyYQ3KUedJSJb4pWepUoE0r/Tr4fZgZd4+FERKdMw0hd9ni4Q10TCijH20e5orgQxr10JKMMTreAPk3rsBK6XrSQVkEgVkEkFvx9fc6KKWnem4zoVs5x1uGd/Q/3hzuU60MB9eh4Oh+Y4NqdiOqIn9RgLxfClJP/luzkcqbxMslCBZD3/q27nCOZiuk9mQTzAjjrUst+22BDb0D9cCigBts3j995MymbZziowl4hxtvbEs9MX2Cbk0mzeYJIYlR4j96+SwBN4T3JqA5dRf6HK7Jf6P7N1rXRz4CQyEQ6H5hE7SUcVDBrsUPd3xZ/wXeBtVfJ8DVM43FBIhoRiNEhe56C6bwv1c8i6Tjzcg4bcpZTQhAjnH7p4Ob4j9L9TAnuHf+GPlzmhEsYAY9PAiUEc1fa53v88qOEYqFspTGLk1oJxbi+RTDlyDrMY5kESytJ5uQ8//KSQZt/R09A/azabX/7WHto0r5BP2WbZXOLA5RS+9yVtm+C4EsAZNlG4xY7lakA90SuR5sskOxJlb5MkilKkrk4h+GL34QiBoZ7D7+WelDXWfzgODfbQpgyAyocVCGAqlatamNKiT9jLxen6yq/SEkyqqu8h1CiUoFIIOfYks4OOUVTeH96gIVSA8yjKdwFQEL+csMIIc+ETqg3RY/Ynj9zJK4EJmHJMW/OFGNhaxm6TqTF5hZHa/UM+dsAWjmDQimYZKMx0UJEUSJWQmCfiplBsnf0JDWVJ7U0V5Q0c3EGGSZfBxmMetwUOqHcc7AtsanWb9P2t00dC3/O9PWhcAzGudzc4ryk2i9/DYR/kHOI4FAIBQSRnJKspFIQiUJFQgmFJ7eBowknl5vlADhDD9M4NJVbtQzv0zVeOxh0bTQWSdZ3C05eDgUy9x9sS7xOCVGA4VCdKcM5N5iG4iJ1zmhzq32hx2e5FQRrCOHzGQM4ywYxEQIQCkYoCQsi0YgAWRBQO2RfEEKinHM3AHCGNGPo4zrSusZFzriXMQxKAtZC/yUVAM5xHBzPhoPaHw5sGjgsEkFjYFPe8UN4Vy1Wj0+CSARUNIquap+02NMk3QrgEgDzANCRxwRyZwAhSA9umkO/x0ROUPV+cGwPB5THQwF1TySo9+mEoZDfdipxXlAGtX4rugJpeH0yqnySC0D9vIUmJ4sAAACLSURBVBbnCkL5VYRgDmdoIBReYPC6ryFBmC1J2eUkK5CslhOlFEc5x1HOsC1ykm3oPp7qiHTosa5AGl6/fM5GuxnOCwGMhNcnoyeowOuXUeWTnDwb4uecv9rRwBm8ALzI+l+tAHI97REAaQCdhJC+3qDS1X1C6aOU9C3wNSWfevRtVPvld2WkF8L/AAcX1r7ymUwkAAAAAElFTkSuQmCC;" vertex="1" parent="UEzPUAAOIrF-is8g5C7q-175">
          <mxGeometry x="712" y="10.5" width="76" height="76" as="geometry" />
        </mxCell>
        <mxCell id="DsdZXftXb6FMQTqhYJn2-29" value="" style="shape=image;verticalLabelPosition=bottom;labelBackgroundColor=default;verticalAlign=top;aspect=fixed;imageAspect=0;image=data:image/jpeg,/9j/4AAQSkZJRgABAQEFRgVGAAD/2wCEAAgGBgcGBQgHBwcJCQgKDBQNDAsLDBkSEw8UHRofHh0aHBwgJC4nICIsIxwcKDcpLDAxNDQ0Hyc5PTgyPC4zNDIBCQkJDAsMGA0NGDIhHCEyMjIyMjIyMjIyMjIyMjIyMjIyMjIyMjIyMjIyMjIyMjIyMjIyMjIyMjIyMjIyMjIyMv/CABEIA9QD1AMBIgACEQEDEQH/xAA0AAEAAgIDAQAAAAAAAAAAAAAABgcBBQIECAMBAQADAQEBAAAAAAAAAAAAAAABBAUCAwb/2gAMAwEAAhADEAAAAL/AAAAAAAAAAAAAAAAAAAAAAAAAAAAAAAAAAAAAAAAAAAAAAAAAAAAAAAAAAAAAAAAAAAAAAAAAAAAAAAAAAAAAAAAAAAAAAAAAAAAAAAAAAAAAAAAAAAAAAAAAAAAAAAAAAAAAAAAAAAAAAAAAAAAAAAAAAAAAAAAAAAAAAAAAAAAAAAAAAAAAAAAAAAAAAAAAAAAAAAAAAAAAAAAAAAAAAAAAAAAAAAAAAAAAAAAAAAAAAAAAAAAAAAAAAAAAAAAAAAAAAAAAAAAAAAAAAAAAAAAAAAAAAAAAAAAAAAAAAAAAAAAAAAAAAAAAAAAAAAAAAAAAAAAAAAAAAAAAAAAAAAAAAAAAAAAAAAAAAAAAAAAAAAAAAAAAAAAAAAAAAAcepPPdaf4ennv0cxPMkR0SJHMEkRsSRG8ElRrBJkZEmRgmToxglCL4JSiwlKKiVIoJWiYliJ4TLUREuRES5EEpeiGCYIfiExQ7EpkhomSGCZoWJoheCaoUJqhImyECboOJwg+CcoKJ0guCdoITO0D7kJg12x8vQIkAAAAAAAAAAAAAAAAAAAAAYM8dPobFWR6jVYtUfp88PbwYY6hgiWHGQwMMDBJhiTDAwwMMJGBhgzxYGBLDA4kyOIOJnDAwxMjiDAwwlhgGBhgYYGGEmEmGBhgYYBhLDEmCJbbUYibHmNDfepYvtAZ1n2/oOOwAAAAAAAAAAAAAAAAABqOuO5F+rw0Mthj3rMdveeXtGe5MPtWuRbsyB5e2jbxHWib0aJvRoW+Ghb4aBvxH0gEeSER5IRHUiEdSIRxIxG0kEbxJRGklEZSYRnEnEYScmLpQIslIiyUiKpUIqlQiiViJpYIklqUSS1CJcZNWHt5dTVMaVFhy6jgl8wrWKr3dqZq2K+7c2eXpCtLZ6Yovo+gI3Z8aixII9drNvqMF27nz7auZdloqWAAAAAAAAAAAAAAAABp+uOEbY08dh3+uOpI9n96GnjJXtgAAAAAAAAAAAAAAAAAAAAAAAAAAAOn9ak9/HGqw1s1jnZHHcasTYMvQDx9QAAAEUlbrmhujfVR6lLQMcbXhbEz87XDmXZQKVkAAAAAAAAAAAAAAcDqQ/sdXSx2Gw9fH6SrPLM2A8/YAAAAAAAAAAAAAAAAAAAAAAAAAAABjMQ75jkYY2cp9vna3n6c9+ZOiHPQAAAAAD4/YU1GfQlKalHS9nq4uV792NMXPi6IePqAAAAAAAAAAAAAj+7hFmn88MaGX95r0Nrm6weFoAAAAAAAAAAAAAAAAAAAAAAAAAAAADrUzMoFpUDG6t15ROcZxdQOOwAAAAAAAGq2qY87/AAsutNvNXHTe846vQY2iAAAAAAAAAAAABoo13OnqYrv6+XR1tRmbAAAAAAAAAAAAAAAAAAAAAAAAAAAAAD5/SMdc1t1DcyVuV7cNC4FC4AAAAAAAAAB8aC9B1rbr1xhjXo3lIaqtXD0g8fQAAAAAAAAAAB1+xp+vOK4Y18P7T2KSzP1ArXAAAAAAAAAAAAAAAAAAAAAAAAAAAAAFZ2ZS1utrcMalCyJrrtjiaoefYAAAAAAAAADT7hMebMbDXfQZW2v/AM0+is633Bn2wAAAAAAAAAAEbkkT962nwxpZMo32r2mVtB5+oAAAAAAAAAAAAAAAAAAAAAAAAAAAAHyom6KV0aTtdTeXK1xDC1gAAAAAAAAAAAKXiNgV9t5q86LuTx9JoMq8AAAAAAAAAAAh0xhtipq8MaWXOe/0O/j7gc9gAAAAAAAAAAAAAAAAAAAAAAAAAAAAaSnLipzTopNGJP7+VsjF0wAAAAAAAAAAAKxrWy6z2s5b1Q25z1PRj3wAAAAAAAAAAEMmcLs1NXhjRy533+h38fcDnsAA+XFH3ddLsPhk+z48ofRxynIAAAAAAAAAAAAAAAAAAAAANHTlx01p0Uoi0pseVsjE0wAAAAAAAAAAAKxrOzKy2s5b1Q29z1PRj3wAAAAAAAAAAEKmsKs1NVhjRy55sNfsMfcDnsBGJPX1itrcZxqZWMZwMEsYYMuKJ55+WInsZ6uE93l0OMTss6zCdpnU4NxjTk7jjqMJ2vHV4Rsca7ErHklU2tmaIV/cAAdVETjWlbGZtuOqx6c7XOowbr6aDEJtYVD2rStyYUbYAGipu5Ka06KTxaU+/lbYxdMAAAAAAAAAAACsKzsysdrOW/T9wczPhj6AAAAAAAAAAACEzaEWamqYaWXPdhr9hjbgc9gNPuHXNecbFWatc4scVvxsoVnxs5KruFqJiqPnbYqLjb/GYqDFvcZiosW5xKlxbOJVPi10qnxbOYVJxt7mmneVx/SJiMxKdoOOwAGMiotNenTvU6Vxd2eopDF4YKPXZ8pinrk7HZre4V/cADRUzctMadJKYtKffytwYukAAAAAAAAAAABV9Y2bWO1nZt+n7g5mfjH0AAAAAAAAAAAEIm8Hs1NVhjTy5/sNfsMXcDnsAAAAAAAAAAAAAAAAAAAAAAAAAAAADQ0xc9MadJKIqteHobPnjFKz6Hed8Hol51Hop50wejHnLB6OeccHo95vwekXm3B6Tea0vSjzVg9LPNGD0w8zYPTTzLxLMrHPG7WXBT1w+PpYAx9AAAAAAAAAAABBpzBrVTU4Y0suwNjrtji7gc9gAAAAAAAAAAAAAAAAAAAAAAAAAAAAaGlrppXTosOd2v8APHdxE9LHdS6WO7g6WO6Oi7uDou9xOlju4OljvYOi72JdHj3h0cd7B0cd/B0HeHQx38HQuWAXfRs90ZlwAAAAAAAAAABBZ1BbVTUYY0suwtjrtji7gc9gDBlrPn3xt2k4zG9aDBIEeIkKPkyBocm9aXlE7hqeUTtGt5nfdPnE9l8OUPq+fJPJgZYGQAAAAAAAAAAAAaGlLqpPTopXFJVY87hGJpAAAAAAAAAAAAAAAAAAAAAAAAAAIJO4HaqajDGlmWHstbssXbDnsBBJ3WVqr0MMaeawDDAwwMAwxMsMDDCWAxjODBgMYMuOE8s8MJn02p24srQCtYAAHVIBFunjbyu26mO47eelg7/LXYTLLT8/3Hn2pCKNsADQUndlJadFK4nLLHncIxNIAAAAAAAAAAAAAAAAAAAAAAAAABAp7ArVXT4Y0suxdlrdli7Yc9gNRt08wDM+WPCCZnSJgyciDJyIJieCA8bASrvhY6YrXhZoq/haaYqjhbSVRfO4UxTnG5RTGLoFLc7mESlpVshx0AABVkWvxcrUFxv53zQGPQCXn3j6D4lLXL981fYPH1AA0FI3dSOnRxLIlLLHncYxNIAAAAAAAAAAAAAAAAAAAAAAAAABAZ9AbVXTHHSy7H2Wt2WLthz2AAAAAAAAAAAAAAAAAAAAAAAAAAAABoKPu+kNOjiWxKWWfO5Bh6QAAAAAAAAAAAAAAAAAAAAAAAAACAT+v7VXTYY0suydlrNni7gc9AAAAAAAAAAAAAAAAAAAAAAAAAAAAAR+j7wo7UpJZEZdY8rlGHpAAAAAAAAAAAAAAAAAAAAAAAAAAK/sCvrVXSsNLMsnZ6zZ4u2HPQA652Edz6echaHkbxpUTumlG6aXBu2ixLfI/wAUSJG+JJkYxKUIsJSiwlKL84SVHfrE71pu1E98c9AAAAD4n2cORljIYGQAAAR6jbyo3UopbEZbY87nGHpAAAAAAAAAAAAAAAAAAAAAAAAAAK9sKvbVXS4xjTzbM2es2eJtBz0Aq60amuVOnhjSz2GIMMTIwMMDDAYwDAwxMmMDAMMDAlxCfT+oLfydEK3uAAxnrFUxfON3LMY755Y4Dljjgkly+dr0zrm5FC0ABHqMvOi9Skl0Ql1jyugYekAAAAAAAAAAAAAAAAAAAAAAAAAAryw67tVdIY082zdnq9pibQc9ANZs0xB/lPXv419xsNMVzix0q3xZIrbNkCuM2MhXObFFd5sNE16sIV7iwxXnGxRXHCykqy+FqJipcW2lod8VvcOZAAArmI3oteFD/O/HpxQPH0Al5/zf4qS2sqvuHl2ABHaLvWidSil0Ql9jzukYekAAAAAAAAAAAAAAAAAAAAAAAAAAruxK6tVdGY082ztpq9pibQc9AAAAAAAAAAAAAAAAAAAAAAAAAAAAAR2ib2ojUpJfD5fZ8rrGFpAAAAAAAAAAAAAAAAAAAAAAAAAAK5saubVXR4Y0820Npq9pibQc9AAAAAAAAAAAAAAAAAAAAAAAAAAAAAR2h73ofUpJhD5fZ8rsGFpAAAAAAAAAAAAAAAAAAAAAAAAAAK4set7VXR4Y0860drqtribIc9ADVTG1Qp7eU1QrJNELzEzNDBM0MyTJDRMkOExQ8TBEMxMuRES5EsksRTMJUiuSUox9UyJ8/p59gAAAHy1Uxums+h33THcdD5mzcOcSAABHKGvmhdSkmMNmNnxu0YWmAAAAAAAAAAAAAAAAAAAAAAAAAAreyK2tVtEw1M20trqtrh7Ic9AYpu5KdvU+pxNCixgMMJYJMOIMDDAMJYYkwRLGEmGBhhIwTG1aXujKvhU9wAHHl8CkdLnhv5TGePcYZwYxnBvb381eisy53RQtAARyhL7oPUoplDZjZ8ruGFpgAAAAAAAAAAAAAAAAAAAAAAAAAK2smtbVbQ4Y0821drqdtibIc9AOh30xEeExevnDcTMQrE2EIxOEoNidEQTE8ECxPhAONgpV7xsQV1xscVviyRWnGzRWPG0Eqt5WgNRtyv6hEgAAQiG3Ss+NHfK9npxQ2L6FD/S9BXdiFX3DjoACN0JflBalFMYbMrPnd4wtIAAAAAAAAAAAAAAAAAAAAAAAAABWll1naraHBqZ1q7bU7bD2A56AAAAAAAAAAAAAAAAAAAAAAAAAAAAAjdBX7QOrSTKFzOz5XiMHSAAAAAAAAAAAAAAAAAAAAAAAAAAVnZlZWq2gMamda+21O2w9gOegAAAAAAAAAAAAAAAAAAAAAAAAAAAAI3QF/wDn/VpJnC5pZ8rxGDpAAAAAAAAAAAAAAAAAAAAAAAAAAKxs6sbVbQYY1M62dtqdth7Ac9ANf3KWseFhKzxdq2bmsMQtFVpNpqrwWtmp8JtrNSYLdVDguFTuIm5FNC5s0xxLpzShN2ZpDBeGaOwXptfOu/8APq7mM0LYAAAABxiXXMvfH7c9AAAAARvz96A8/wCrSxNIXM7PleYwdIAAAAAAAAAAAAAAAAAAAAAAAAABWFn1faraDDGpnW1t9Rt8PYDnoD4Ulemhs16lxOON+pCMTbBCsTXCYVia8UQtM+KYbiZYlDcTHjMQ/Ew4piKW8SJYlnGUUxKsEVxKcIi+JPiUYzJZjx1MvqY2iAAAOBzVtX9vwtelmNGpbdg+YtpW9vRKrrGoWe2PPsAACNefvQPn3VpJpCppZ8r0GDpAAAAAAAAAAAAAAAAAAAAAAAAAAKvtCrrVaPGNTOtzb6jb4ewHPQAAAAAAAAAAAAAAAAAAACnLGoG/VFxXq1T9O+aF5li4+Hn3T+34bX2872GFpgAARrz56D896tJNIVNLXnewwNEAAAAAAAAAAAAAAAAAAAAAAAAABVtpVZarR/DGrn29t9Rt8LXDnoAAAAAAAAAAAAAAAAAAACEU3eNG61H7elvMVuczvqDvqhZi6ZtCZtn2g8vQAAACNeevQnnrWpJrCZtZ872GBogAAAAAAAAAAAAAAAAAAAAAAAAAKstOrLVaOsY1c+39xp9xha4c9AAAAAAAAAAAAAAAAAAAAfPz96F1ljy86YlUU2M/vdHGOotGyvMn2pWPTio7Tz7fZHl2AABGfPPobzxrUk2hM2s+d7jA0QAAAAAAAAAAAAAAAAAAAAAAAAAFV2pVVqtHcMaufcO40+4wtcOegAAAAAAAAAAAAAAAAAAAAGg36Yp6vr9oHXosXHrJirpDHsWPL1D9YFPcHTDjoACM+ePQ/nfWpJtCJta875Hz+iAAAAAAAAAAAAAAAAAAAAAAAAAAqm1qotVo6xjVz7i3Om3OFrhz0AAAAAAAAAAAAAAAAAAABx6tSQa9W9QKos2t7aSgL/8AP+hVu2cQeW59mgtB3uhuZ9oWxW1k418K/qABGPO/ojztrUk3g83teV9D5/SAAAAAAAAAAAAAAAAAAAAAAAAAAVRa9T260cMalC49zptzhawc9AAAAAAAAAAAAAAAAAAAAVBXfqKBaNSmexsNNo1ZNGCEs02qc9O33bs8u9psDG0AgABGPOvorzprU03g83teN+D5/SAAAAAAAAAAAAAAAAAAAAAAAAAAVPbFTW68cwxqZ9y7nTbnC1g56AAAAAAAAAAAAAAAAAAAAAxod+mKjrO+KH2KM6sTS2JRsceRU9wAAAIx5z9F+c9ekm8HnFryv0fPaQAAAAAAAAAAAAAAAAAAAAAAAAACprZqW3XjeDVoXNudLusHVDnoAAAAAAAAAAAAAAAAAAAAAD5QGw3fPU7Zx0AAAABF/OXo3zjr0U4gs5ted/j57SAAAAAAAAAAAAAAAAAAAAAAAAAAVJbdSW68awatC591pd1g6oc9AAAAAAAAAAAAAAAAAAAAAAAAAAAAARfzh6O84a9LE6gk5teXoEfPaQAAAAAAAAAAAAAAAAAAAAAAAAACo7cqK3XjRx1aF1brS7rB1Q56AAAAAAAAAAAAAAAAAAAAAAAAAAAAAi3m70j5u2KWJ1BZzZ8fQQ+e0wAAAAAAAAAAAAAAAAAAAAAAAAAFRW7UNuvGcGrRuvdaXdYOoHPQh/fMwVHPe+N+PH1AAAHE5Ky19nxt10u7W9gAAADo1V7edxqttDmeQ8+wAABGeokyjZx7+c6Fb1AAAAK5htnyvhHpDX9AiYt5t9I+bNiincDndry9Bj53TAAAAAAAAAAAAAAAAAAAAAAAAAAVBb9QW68ZYxq0bs3ek3eDqDp89aml+7r9nOd7o49/L0H26it3E0g8vQABWsjpG9W4mNSlLbr8zW7nW54M62AA48qt9OIxFmN3NW3Uf2479PNNucLRCJAHA1/nTdxbZoufzXPD0XIvN/ovD0PqK3qAAhEi81XPDp8WNuhuvS3k6zaFi7Rj3or5s9J+a9ijidwOd2vL0KPndMAAAAAAAAAAAAAAAAAAAAAAAAABUFv09brxnDGrRu7d6Td4Opim5FWt+qOehV+eJlDOOlwU93OOvQrpd3E0gHR7lJe3nptext5ucbftc9Rzs9bHfPonZ0ZeWJo5Hh6jXy0dFd3obWcwmnrxCnb6ffMlv/y3a+fas8ZlwBUspoTQrYMatPPGw6846WnVeYer0Yk+BpBzL5/SnPXiKRVj6DNce1NImAsY9OPRUz8senMLQ0Hmn0r5pu+CeQKeWvL0MPndMAAAAAAAAAAAAAAAAAAAAAAAAABT1w07brxjiatG7/j8apy73S4satFacbt/Ot/Ojb20lf2ojH0+eznS+5PNVwZ1uakYo2o5WPLhuZr6/G3OZkX127F0PNPwtmpdvPW7UP3R6YanbYelxoiT1dpVGH20Ku09BaveYujAaW9T0XY8YX9PljTq+jd7529C4eh9NZsPP8To+ixvZyw416JoWPvR94dPPteWsbPV7+bvPSHlG0aNi5DVZNyO+fu70d7OcVmevMunHZfPaXlzSekPOG5Q42VWmPXj0t5ouCnq3qnkBntjy9ED5zUAAAAAAAAAAAAAAAAAAAAAAAAAAU5cdN268YwxrUdpqmOZbTX3f4euz7Jj6AFcVj6SozTpx/tdXF6rfVJ9X4+Hqw23v5yC5Ov2MPRDy9MUVe2q9/Lzo7HV286UWbRXOv7cOLFnxXNFrozbYZ1tr9gPMXRvCj97OWtVHPqLPqzPFD79e746km8MHQCJhfn/ANaUjo1a4Y461P0TUEZ+NX2Ydm147r0jqd7g6IVvVSt1fD148i438f8Aosz6fLGOucz2AT3x9PRQ+c1AAAAAAAAAAAAAAAAAAAAAAAAAAFN3JTVuvF8Ma1ES/jqSTwxNIOOgGm3KY82/G0qs3M1hj14+t8x6fZN4KdgACvqe9Q0VpVIiY0qjd6r0FV9tr2DF0AAFG3l0fbz8wNhrt/OYb6Jkt2dfsYGiHl2A6nbHl7T+iPO+9nYwWvJfMQvHKthmWwAIr5n9hUxo1agwxs0U9gE+8vX0YPmtMAAAAAAAAAAAAAAAAAAAAAAAAABTVy1Xa8IJh9NehsLz1e9xtAK/sAABxo+8uPt5+Zp1Z2yseWRRsgAANZs0vNXQ9O9fQqRCfFGyHHQAAEKoj1Z0Lnh5q9D7Ts8yFX2AAAUzcz148hyb0Bs7vh8/uZtoAAB8fsPLcZ9R+X/oM75z6v7a75vMfOaYAAAAAAAAAAAAAAAAAAAAAAAAAD4/YQfd716cB59gAAAAAAAAAAAAAAAAAAAAAAAAAAAAAInLHUVjY3YdQHn0AAAAAAAAAAAAAAAAAAAAAAAAAAAAAAAAAAAAAAAAAAAAAAAAAAAAAAAAAAAAAAAAAAAAAAAAAAAAAAAAAAAAAAAAAAAAAAAAAAAAAAAAAAAAAAAAAAAAAAAAAAAAAAAAAAAAAAAAAAAAAAAAAAAAAAAAAAAAAAAAAAAAAAAAAAAAAAAAAAAAAAAAAAAAAAAAAAAAAAAAAAAAAAAAAAAAAAAAAAAAAAAAAAAAAAAAAAAAAAAAAAAAAAAAAAAAAAAAAAAAAAAAAAAAAAAAAAAAAAAAAAAAAAAAAAAAAAAAAAAAAAAAAAAAAAAAAAAAAAAAAAAAAAAAAAAAAAAAAAAAAAAAAAAAAAAAAAAAAAAAAAAAAAAAAAAAAAAAAAAAAAAAAAAAAAAAAB//xAA2EAAABQIEBAUFAAMAAgIDAAABAgMEBQAGBxARNhUWMVATFyAwQRIUITVAJjI3IjMjoDRCUf/aAAgBAQABCAD/AOyqYxShqZWWYojoY9xsi/gprnTD/Ubo/wD5zQagukvzzSSuaiVzWSuayVzWSubCVzaSubSVzaSubiVzeSubyVzeSucCVziSuciVzkSucyVzmSucyVzoSudSVzqSudiVzsSudyVzwSueE654JXPKdc8p1z0nXPadc9p1z4nXPidc+p1z6nXPydc/J1z+nXP6deYCdeYCdeYKdeYKdeYSdeYSdeYadeYideYideYideYqVeYqVeYyVeYyVeY6VeZCVeZCVeZKVeZKVeZKVeZSVeZSVNcRIpbQHDKdi5H/APE7eYxSFExnM80Q1Km4n3iv4TVXVXHVX+AR9YjlrQj2kR9Mfc8xGaAhF4jNlRBOTZvWz9AF2nahMBQ1F7Poo6kbOXrh2bVb+IR9oR9gR0y1rX39fVr7IjkI+pm/dx64Ls4PERNQSoTCKybhIqqPZ3sggxT1UfSbh6OhvQUomHQqMO/XDUqdsuDf+wtrp/8A7hbDT55YaVyuzrlZnXKzOuVWdcqs65UZVyoyrlRlXKjKuU2VcpMa5SZVyiyrlFjXKDGuUGNcnsa5PY1yexrk5hXJrCuTWFcmMK5Mj65MYVyXH1yXH1yVH1yTH1yTH1yTHVyRHVyRHVyPHVyPHVyPHVyNG1yLG1yLHVyJG1yHG1yHG1yHG1yHG1yFG1yDGVyDGVyBGVyBGV5fxleX8ZXl9GV5fRlGsCJIUTGmUodur4MX6B/FNIqQfiH2jawZpb8qo4amENVyYbx4f7qYcRxiaJPcOpJEBM0fxEhGDo9oRzg7jfwK2raBuRjPofU37LJzBGmqSKqp1VBUUzaxzp6P/wATW3ECaGcotkW5fpS7y+fN45qdy6uG6XM0cUU80klF1SpIxdgPnX0qP4+0oeO0MmAAUNA9JiFOUSmlbHiJEBOnM2fKQ/1KDm2dLs3BHDa1LyRmilaO+xy8v4P1N24jqOo5N2yrpUE0WMAijodyAAUNA71IyLaLZHdOpydczjvxFsulQVmPJT6V3UZCsYhLw2ftz9jsZUDrtZSKew7sW73IhzJnKclm3gEuQrB92GYlPti+AiI5xsUq/N9VNWiLNLw0e9u3aLFqo5cT86vOPvEPrWtIoquVyIoW5ZaMeBHUj70nFtJdoZq8uW1XVvLfXQjkmodFQqidn3SWeZCkv/fJvysWwmo5zKHMc+UTEGemBZYhCpkAhO9iOlXfcIyrz7Rtk1arvXSbZtblst4Nv9Rv4HLZJ23OgvdtqKwDjxkMo6QcRb9F61hZdvNxaT5v/aooVMhjnfvDPnRlRyiYwz9b6jkIVMgFL3y9577FmEe3yTTOqoVNO17bThGn1q/xO2iD5qo2c3Nb61vSYomysi4eCy4Ir/23C+0KVmTJo1O8ckRI2bptUCopd8evEmDNZ0vIvlpN+s8Xysa3vCSCWdfyXBCoT0UozVdtVmTtVq4ysOdGXgwQW/rXWKgidU66x3C51j5QjD7Rp4h++4gy3/pi0srYhRmpYqZylAhQKX+XEmAA6BJpvlaEzwW4W6x/67jdfQgm2LlDM/vH5fq76sqRBE6qkk+PJSTh4plaURwmETA/8zlsk7bKt1piNUiJZywVysuVGXthqqf+qVcfcyKp84Fr9vHgce+3zIfZ28dEuVqxgSk+gmf+jFGKABaSyeWF0l4Uk8jTf0vV/t2ayta65NUBcu0kQKUClAA77iE88aYQaFoRrDtgCUa4fG/ouiO4rbb5qFCNWy/4bc0e6H+m41vojQIGVuI+I/MqPfrhdfeXC/WoRoR0DWoNmDCEZtf6p5nw6ffswrUQ/IRboH0Szd/03Op/5t087YT0arK9+cKgg3UVExxOYTjUW3+7lmbf+vEht9vd6qgZWEv9xZkeI/0XIfWSIXO3yfTEJD364FfBt6QUrplZyXjXWxAf6sVktJaPWzwwU+u0hL/TcA6yx84UNIht367R+m1ZEaHrlYZdbqSH+vFkuh4k2eFQ/wCNOg/puD9uplrUN+na9+vDakhXzlYG6Sf14tdYnIR0rCnbjv8ApuD9wpQjlDfp2vfrw2nIUPXLD/dJP68W+sRWuWFG3Hf9Nw/uFM4b9O19g7hFMdD/AHrWvvmlfeta+9bV923GvuUa8ZIegHIPTUB7beG05Gh65Yf7pJ/Xi4P5iM8KNtu/6bh/cKZw36dr67kmVUFPsmw/+Q6joFaBWgVoFaBQgGWo19Zg6AsqHT7pwHQHzsOnE34dAl5IOgTcoFcflg6cwy4VzJMBXM0zXNEzXNMzQ3TM0N0TI0NzTI0NxzA0aeljdU56WSOBy2zcnFimbOfZuK9DtXJ2caa7Jww0NzzY0NzTdczTdBdE4FBdk6XoW9J4tROIDki5U5RJQiyRVE/VeO0pGh65YfbqJ/Xi51iM8KNtu/6bi/cqZw36dp658hiTjr6vY1zEfQI6+0I520c5bjY/R7EgodGOcqk1EfyOQj6rEXOvbKRT+q8dpSND1yw+3UT+vF3rEZ4T7bd/03F+5Uy1/NQv6Zp65uELJkBRNSClEziUeBydcDlKGDlKGElAoYWToYeSoYiSChjJAOosHgdRauQ6iisHUUzh1EBDqI19QV9QVqFahWta1rWta0IhWoVqFEKZUwFTtK3FmavEHvsHKByiU1wQDiFdnrUKEwVqFfUFfUFahkzZuH7ojZrBxhYeIQZB6rx2lI0PXLD3dRP68XesRnhNtt3/AE3H+5UzhP0zT+USFHqKKQ9Ratx6ixaD1GNYj14XH0MTHDXB42uDRlcGjArhEbXCo+gjmIdAaNg6FTIT/X2jkKcolNweN11oItgHThzKuHMqGMYD1GHjDdT27DH/ANmrBoxIJGvrvLaMjQ9csPd1E/rxe6xFa5YTbad/03H+5UzhP0zTv15bRka+csPd1krUK1CtQrUK1CtQrUK1CtQrUK1CtQrUK1CtQrUK1CtQrUK1CtQrUK1CtQrUK1CsXusRnhNtp3/Tcf7lTL5qE/StO/XltGSoetCNAIgOoeIevEPXiHrxD14h68Q9CoevEPXiKV4h68U9eKpXiqUKp68Q9eIevEPQqHoVD14h68VSvEUoVT14ileKpXiHoxjG/wBqEawl207/AKbk/dKZa1B/pmnfrz2jJUI/nIR90R9kR9jCdIxLWXOb+i5P3SlCOUH+kad+vTaElXzQjSKCzlTw0OESdcIk64PKVweTrg8pXBpSuDylDDylcHlK4NKVwaUoYaVGuDStcGla4NK1waVrg0rXBZWuCy1cFla4LLVwSWrgktXBZauCy1cElq4JLVwSWqFsOcmHJCnio1vDxqDBr/Rcv7tTLWoP9Iz79em0JKhH85Yd7sJ3e5f3alCOUH+kZ+sxikKJjHuCKTMJTDc8QFDdcSFDd0SFDeEUFc4xdc5RVc5xVc5RNBeMQNBeEPQXdDDQXXDDQXTCjQXNDDQXFDj0CeijdAmIw3QJSPHoEgzHoDtsPQHCI9PFTHp9ZRrUK1CtQoBAf6702fJUPXLDrdhO73N+8Uzgv0bP13RKqOXx2aeQjmI5CPqEa1rXPQK0CtArSta+oa+o1fWavrNRFVEjAYloXQu7XCOf+zct6ulXSjSLNKyBh1HikhXFJCuKyNcYk643Kh0C4JgOkJfcgxcEJIorEXRIql6r12fJUPXLDrdhO73N+7Uzgv0bP1zSJ0Jl2Q9COYjkI+oRyEfWI+u3inNcceCfsSAnCNdCkA/gPZsk6h7RYip6r02fJUPXLDrdhO73N+8Uzgv0bP1zUEjLEAwntCTA4gULNkx6hZch88kvh68jvK5Hd1yM6rkZ1XIzyuRnvwNjSHwNjyXwNkSgdDWVLh0GzJgKGz5oKG0ZuhtWbChtmaChtyZChgJgKGDlgoYWUChiJOhipGuFSNcKkaThJVU4EJalqmizi9e+wIahVzWe7YOlHLAUlAHQfDUrwz19B6EhgoQGhGoS23845KRFk0SYM0WiHqvXZ8lXzlhzu0nd7n/eK5wP6Nn2/StK0CtAr6QoUyD1FBIeoAABoHrvXZ0nQ9csOd2k7vc/7xXOB/RM+/Xts6ToeuWHG7id3uj96rnA/omffr22dJ0PXLDjdxO73R+9VoRygP0TPv17bNk6Hrlhvu8nd7p/eq5fNQH6Jn369tmydD1yw33eTu91fvlcgH81AfoWXfr32bJ0PXLDfd5O73V+/Vy+at/9Cy9bt63YIis5G9IoDaUF5xA9QvCHGgu6FGubIWua4SubISubISubIOhu6DCucIShvKEob0hAob2haG+IUK56hq58hwrn2Irn6Irn6Irn6Hrn2GoL9hPkL7gxot7wI9QvKANRbqgj9EJqMdHAiHt/dN9dKBZMen1FGtQrUK1CtQ9m99mSdfNCOtYa7vJ3e6/36uXzVv8A6Bl65+SUkZVUw+jWta1rWta1/h1ysW4l1V+Eu/YEQANRui7HUu8VQbCAVrpX1GCvEPXinrxD19Z6ty8X8K5TKskqRZEiqfqvfZknQjqOWGu8Cd3uv9+rl81b/wCgZeuVaHYyjlBT3Nf4LLRUWupmJPYfkOpHuCJ/kAAB9eulWqVQlrRhVfVfGzJOh65YabwJ3e7P36uXzVv/AKBl65eDaTCZQWUsRbUfDGxHvwNiyPwNjSdDY8rXJEtXJEvXI8vXI0vXIssNchyo1yFKVyBJjQYfyNeXr/5DDx78+Xjz58vHVeXTmvLl0NeXLr4HDl58Dhy++Bw6kvg2HksHQ1gTQdDWLPF6JWNPKKgQ1t20hANjaezdNiOFXij6INbU4QRARgJkvUYSVDqMPKBXCJOuDylBCyojoFu2C/euk1pQpQIUCl9V8bMk6HrlhpvAnd7s3ArlrrVvbfY9+vjZcpQ9csNN4E7vdn79WhHWvmre2+x79fOypSvnLDMf8xJ3e7dwq5fNW7t9j36+dlSlD1oRrDLeRO73buFXL5q3dvMe/XzsqUoR/OWGW8id3u7cKuXzVu7eY9+vrZUpXzQjpWGW8id3u7cKudu7eY9+vrZUpQjlhjvInd7u3Crnbm3mPrlp9lDkL9wOIJNfx5hJ15hpV5hofPmG3rzDbV5htK8w2leYbKvMNjXmGwrzEjvnzEjq8xIz58w4uvMSKrzEia8xIivMOHrzEhq8w4WvMOErzCg68wYOgxAghrzAga5/gKRvm31jgWklU1kyqJeyu4RbJCquF2QAnEtEuGGP/qEzGG6cVjx6DKx4dRmosv8AsNxQwCBRTVTWTA6frvvZMpXzlhjvInd7v3EtlrVubdYeo5gIQTC/eqSD5Z0rnr74+oRoRzsGbVayxIxT2DmAhRMa5rhcXBJHUNrloFfSWvpLX4+PxVsXM6t1+Q5U1CqplOT1X3siVr5ywx3kTu94biWrWvmrb26x9RigYogMowVjJFZor/JrmI+gRqy2ajy6mQk9h4kZdmuiU6Z0jikp6BHPQTBoESidtEMkFfVfmyJSh65YYbyJ3e8NxLZfNW3t1h65OHZSyIJuzWBHiI/T5fMq8vWlDh40+PLttQ4dt68ukKHDlGhw4Sry4TocNyV5bFry2CvLahw2NXlqehw1Ury0VocNV/gcNHNeWjr48tHfx5aPfgcNH9eWcjXlpJ/A4aSvwnhnJCoALQNvM7faik29m6rCJLuDPo9TD24yCOh7GuQnUbNuMKG0Li1rk+4qCy7jHoSw7mOOgWph2Zi7TkJf135siVoeuWGG8yd3vDca2dt7cYdz09u/NjytD1ywv3mTu947jWy+atvbjDv1+7HlaHrlhdvMnd7x3Itlr+atvbjDv1/bHlaHrlhdvQnd7y3Itl81bW3GHfr+2PK0PXLC7ehO73luRbL5q2ttsO/X9saVoeuWF29Cd3vLcq2XzVtbbj/XJTLCITA7wcQIgBrzAh68wIeuf4avMCFrn6Ern6Ern2Drn2CrnyBrnyBrnuArnq3654t+ueLerne3q52t2gvW3RrnS3q5zt6ucrernG3q5wt+ub7frm236C7IAaLdMEYwFBNUiyYKJ/1X9saWr5ywt3qTu957kWy+atrbcf6l1it0FFjyD9aSeqO3HqEfXrnrlrWta1rQjlrWuVq3I4gZFMBAdQ19w5ypkMc6mJVuJuhQpq6Retk3Lb27+2NLUPUcsLd6k7vee5VsvmrZ21H+p2h9yzWQFdFRquogt6RHIR94R9IjSaR11SIpoEFJummPta1iFJoktJ2gjWFj4vAnDZX27/2NLUPXLCzepO73puZbL5q2dtR/rnLVYzZvGMOHC2v4HDhxQ4bua8uHdeXDyhw3fUOG7+hw3kaHDeS+PLeUry3lfgcN5ahw4l6HDiYocOJmhw5mq8upuhw7naHDueocPJ+vLy4KHDy4KHD24aHD64qHD+4wocP7jCgw/uQTAA2pYZYhyV/IeyqqRFMyilw4nkSMZvCSNwS0qYRe6BrrQjWga61H3JMxRgFnCYrCBiozUfJM5RqVyx9i/wDYstQ9csLN6k7vem5lsvmrY21H9tv67Tyj1SLZ9cuGSAszuwoQ0ABHK2p1zATKDlD2L/2LLUPWtawr3sTu967mWy+atjbUf2y75M0Raz50nXQNasux2kcyRfyF+bIlKHrWG7Rs9soUnU5hfGvCmVipe3JaEcCk9tCz381JoLL+xiBsSWoeuWFe9id3vXcy2XzVr7aj+2YpGMFpkAKaiT7xv4gdKvzZEpQ9awt2f7mIGxJah65YVb2J3e9tzrZfNWvtqP7ZiGzM8s14JBoelWXfzR0zRjpa+xA1jyggPWsLNn+5iBsSWoeuWFQ/5sTu97bnWy+atfbMf2xZEi6J0VbmgF7cmFGimSczIpRyseQaw8u2FioPhz9s7bvEgVa+1iBsOWr5ywq3uTu97bnWy+atbbEf22bg2M+wM0fXFYctBmOqn1oc2T93HLgsyt/FVyiYiE4xftZJoR0z9jEHYctQ9csKd7k7ve+6FqEa+atbbEd2+XsyCmhMdzdGGxIWLcyTQfxQ/GXSrTutzbEkCgN3CTpsm4Q9eIOw5avmhGsKd7k7vfG6FsvmrW2xHdwv7Y0rQ9aw5j2clY/gPbrwwTSQUewOWFMoZ5bKjNT14g7Dl6HrlhTvgnd743Svl81au147thzlTIJzt5Rg8UFNtlf2xpWh61hVs3K9WqbK85VFKsHDm8eYJ7GIOwpeh65YUb4J3e+d0r5fNWrteO7ZiZPuXc6pEETUOiqRVK2cUTJARrPMZBpJNiuGV/7GlaHrWFWzakZFtFMVXjyZkjy8y8kT1hAxMlEP3xvXiFsKXoeuWFG+Cd3vndK+XzVq7Xju2Yl2w7SlVJxuI5Mn7yOX8dk7v2ckIZxFvRHWoC/n1uQnDmc1ccrcCpVJGouMdTEkgwZw0UhCxDaOb+vELYUvXzlhPvgnd753Svl81au1o7thigYNBuPDKPkxO5jJi1ZqDMP3uuv5D0QNrS1xLAVjadnsbWaCCXsYhbBl6+aEawm3wTu99bpXy+atTa8d24QAQ0GQsy3pQwmc3tYMTA2+rJMasWx2N0MHDp3HYeW1HGKcpCFTIBCeziHsGYoR/OWE2+Sd3vof8qXy+atTa0b3DE1M57HdiWsIEzFtx6cfbxE2DMUPXLCbfJO733upfL5q1NqxvcHDdJ03UQXVwihVHfiEjY1rEsEmTL28RdgzFD1ywl30Tu99j/la+XzVp7Vje/Yi7AmKHrlhJvond773Wvl81ae1Y3v2Iv8Az+Yoeo5YSb6J3e/N1r5a/mrT2pG9+xF/5/MUPWhHSsI99k7vfu618vmrS2rG9+xG/wCfTFGH8jXSsI99k7vfu7F87S2pG9+xG/59M0P4HLCLfZO737uxfL5q0tpxvfsRv+fTNCOWEQ/54Tu9/bsXy+atLakZ6bovhGFXFm0TxInCrfUe2roaXE3MKfsnOVMomNOYnnI4OhDR+KMoiuH30VKNZmPTes/Zl5ZpCRyr57IYrS6y4/YQGKp1HJG82U5TlAxfZu28mVqtieIrizcR1/rJZuIre4lwYPPavLFBGDeKRsW3xfuNJwBlrUu5hdkeZw1zxH/59M0PXLCHfhO739u1fL5q0dpxnou25CQEZqmoodVQyimtREqvDSaL5vHSCEowReNvYxGur6QNBssrDubgcr9q5AdfYOcqRDHPe91GuOV+lChGsMbq+7bcCeexPTTW34laQdzEs6nJVeQeUgsq2XTXQs25UrngyOvZxEvILbi/tWhjCYwiNWtcTi151GQRYvm8kxRetMsR/wDn0zQ9csIR/wA9T7vf27V8tfzVo7TjM5SSbxMeq9dTEs4m5NV65zsG5OFyHDnXrvO5yW9F6JKKHVUMopkNYdXRxJhwp168S7t1+uAY0I5NHa7F4i6bWxPoXJCpPkvUqqRFIyil8XYe55bRHO0LlVticTdg3cJOmya6HquKeaW5DLSLuYlnc3KuJB7l1rCe7/sXnL73LEj/AJ7M0PWhGsIN+p93v/dq9CNfNWhtKMyMYClERvO5hnZDwG/psS5eMRv2bn0y0o2ho1Z86mZZzNyiz51l0yj37iMfoPWsFMt56IRftvTfN1ltyL+hA5zKHMc4j6LKuc1tTZVFE1CKplUJ6cULx8Qx7eYenCq7fDPy699KyybdE6yt9XcpdUyJksuuQGEpgMXDu7gueDArisR/+ezNCP5HLB/fqfd7/wB2r5a/mrQ2lGZYg3R4ZDQrPJugq6cJt0Llsg8LCNnqOUXJuIeSRfNoqTby8ai+bZnOUhRMa9roNcEl4TetatuAXuKXTaJ3lbRrclvpToRqxbn5flwScFMBg1DOal2sHFrP3czLupyVWkHYjlZNjjciTh48k45zESS7B3lhddfjJcAeei/rvLbcX4LYxjHMJjVrSWGLs9knkDa5JqqIqkVSsi6E7ogyrm9GKt5+Ooe3I/KOj3UtIoMGd9YeDa8ayfNBHK2bgc2zOISTaNkW0tHIP2eJH/PZmh65YP79T7viBu5xl81aG0oyrtuQlvxmqaih1lTqKZWBa32LcJZ4simuidJW6YBS35cyAZWHcvB5L7JzniNdf0lNBssmzZZ66SatrWt1G3IgrYtxwaFwQ6rFV41XYPFmjnLDW6PvmfBneRzlTIY574uo1xyv0IZWtbq9zTBGibNmgwZpNG2JVqcWjeKNNdcm7lZm5Sct7TuJG5oNN6TKdmmtvxC0i7mZd1OSq8g8ywzs7ijss0/rE+0uESXF2eVp3ItbE6k+I0dovmiTpvliJeYW1FfbNDGExhMautYZ2VwGO4m+fMm8ixWZurrtxxa88tHrZYT3jwyR4C9xI/55M0PXLB8f8/T7viBu5xl81ByTeJsJi9dTMs4m5NV65ysW1+Lvfv3eV0QKVwQ52wroqN11EFqH81h9c/Fo7h7qrzuclvReiSih1VDKKUI6Vh5anDWoSz3LEq1/vGnG2mTJ64jnyLxrbs4hcMMi/QrEy7v9oBjkzZrv3iLRra1uIW1DkaJ5YiWrwKW+9a5WbcylsTZFzIrEcIkVSUUIimZRS+bsPc8tojQjVo2yvdM0RqVmzQYNEmrapSNbS8a4YPLghHNuzS8a6ywou77ZcLde1cM80tuGWkXkxLO5yVXkXojplhZZfEnZZ6Qyv+0i3TAmIkch01DJqCNaiAgIBeAXNhDNN3Y/NCOtYPb/AE+74g7uXy6VIzi76Mj44K1q34ReflU2aLFkhHM0mjbPEe2vrT441HKNkXETIoPmpbqjhtkJ0ZmXczkos/dVrWH1p8Xe8Te5mKBgEBvm2Rt6YE6GVkXQNuzIAve92p29EgDY5zKHMc+WHFocKZhLPs5qIbTkUvHu5eLcwsovHu8sK7s1Ly88xQvHxDHt5hQjTFi5knyLJpattt7YhU2SOeIlpcxw3jNR1AdBohzJHKoSyLxRuG3BcOr7u9S6pkRSEdMrMtVe65srYGjRBi0Sats8XbO+3X5kY5JOFW4KgkI61rWDu/0+74g7vX9LdBV04TboWvbyVvRRUA9CiZFUzJqXdbp7emDJEy+4W+2+2yEatuAXuKXTZpMWSEezSaNfRcEI3uCHWYOH7JxGP12TrJZws5EgrZYc2jxZ6Es99OJFp8bi+INMkV1W66ayJzGOcxziOWG1m8GYhKvvTipaXDX/ABxlkk5XQIsRHWulR0e6lZFBgztS2mtrwaTBv6HjRB80Vaubxtla1J9VgfMR0rBzf6fd8Qd3uPTh/a32LcJd56rlgUrhhlGZ3LdVm5VbL5CNNWyz10k2b2tbqNtxBWxfViVavEWPGGfote3V7lmCNE2TNCPZpNGvqxJtTgspxJpkI5YZ2dxV4E0/9UjHtpWPXYu7lgHNtTi8c4oRrpWtYZWVwGO4o/8AVflpp3Zb525FklEFlEVqEdMsHP8AoCfd8Qt4OPRYtr8Ye/fuw9jEm2PHR440oRyw7tPhzUJd76xDUNBv61+AS/3DaulNGi794i0a2rbiFswxGifrl4ptNRa8e7m4hzAy7iOdiOVo2yvdE0RoRmzQYNEmjX14g2kW54MTIGAxDCU3TLCyyuJuyz0h7GMNm+GbmZjrkI1g3/0BPu+IW8HGcBBrz8qmzRYsUI5kk0bewchVCCQ95Wmvb79RZDUKsOzVJJ2nJyPszsM3nohePczMM+gX52b8hTKKFTJh5ZhoVuMnIeziFaA3HGFcM1kVGyx0V4uLezT4jOPtS229sQqbJH2cULGWI8Un4r6gqy7Ne3ZJEAGjRBi0SatvYctkXbZRu4ve1VbSuFRmIjWtYNf9BT7viZEqpSaMoWm6Crpwm3QtW3kreiioB7RyFUKJTEt+HTW8YgBp+A9p0zbPUvCdM4WLjz/Wz9t7DxskIC+Zx7OPSFJn7a9tQblfx10kk0Eippe1fVqI3bbyjOnLdZo5VbORGsEIBdSUeTyvdnTVF43O3cOsMYhVYToQdpRUAYVGvf7nw8gbqU+4esMELebOAVds2bdg1TatP/r4/wD/xABQEAABAgMBCgoHBAgEBQUBAAABAgMABBHRBRAhMUFRU2FxkxIgUFKBkZKxssEiMEBCVKHCEyMy4RQzYmNygoOUJEOi8BVgo9LiNGRzdKDx/9oACAEBAAk/AP8A9KpAGcxMormSa90JdXsTTviVWdqgIlOtz8olBvPyiUV2xZEortiyJRXbFkSiu2LIk1bwWRJq7YsiTVvBZEmreCyJNW8FkSat4LIklbwWRJK3gsiSXvBZEkreCyJJW8FkSSt4LIklbwWRIr3gsiSXvBZEiveCyJFe8FkSK94LIkV7wWRIr3gsiRXvBZEgveCyJBe9FkSC96LIkF70WRIL3osiQXvRZEgveiyLnr3osi5696LIueveiyLnr3osi5696LIueveiyLnr3osi5y96LIucveiyLnL3osi5y96LIucveiyLmr3osi5rm9FkXNc3osi5rm9FkXNXvRZFzXN6LIua5vRZFzV70WRc1zeiyLmub4WRcxzfCyLmOb4WRcxzfCyLmOb4WRcxzfCyLmOb4WRctzfCyLlub4WRctzfCyLlub4WRctzfCyGZiXOcpCx8rInmHFc3hUV1HDygQAMZMEvKHMxdccFlP7Iqesw4tZ/aNf+SMcTq1Nj/Ld9NPzxdES6mFHB9q16SOkYx84fbebPvIVXksgAYyYH2q+d7othwqGROIDo/wCTphxhwZUGldoxHphsNqxCYbHon+IZOiFpW2oVSpJqCNR5INVH8KBjMHgt5EJxdOfigk5gKmJdSRnWeDD7aP4QTE0s7EgQ88ekWQ6/1iyHX+sWQ6/1iyHn+sWQ6/2hZDz/AFiyHX+sWQ9MdYsh6Y6xZD0x1iyHpjrFkPTHaFkPTHaFkPTHaFkPTHWLIemOsWQ9MdYsh6Y7Qsh6Y7Qsh6Y7Qsh6Z7Qsh6Z7Qsh6Z7Qsh6Y7Qsh+Z7Qsh+Z7Qsh+Z7Qsh+Z7Qsh+Z7Qsh+Z7Qsh+Z7SbIfme0myH5rtJsh+a7SbIfmu0myH5rtJsh+a7SbIfmu0myH5rtJsiYmu0myJia7SbImJrtJsiYmu0myJib7SbImJvtJsiYm+0myJib7SbImJvtJsiYm+0myJib7SbImJvtJsiYm+0myJic7SbImJztJsiamgkCpJWkADqhyYf4J9J5xQ4HQAMO3jST7w5yUGnXij9Hlx+25wj1CsXTAOZtm0xPTStgSPKJyaQrOrgqHVQRMsTIyJVVtXmPnEm8yOcpPonpGDiucJgmq2FmqVWHWIVwHkirjCz6SbRr5Got7LmTthRUs4yeI2eBz1YBDhdPNGAWw0hA/ZFOWnEttIxk9wzmKsyQOBsHCvWqziNrccViQgVJ6IdTKN8wekuwRKJddH+Y96Z+eAdAgAAYhxgCk4CCKgw2ZR4++xgBOtOLuhv9Jlh/msitBrTjHdxHVNPINUrSaERwWp8DEMCXdaderkQ/eYlLHu6hrjCTfQVq1ZNsUdc5vui2AABiA5bXwW09ajkAGUweAyn9U0DgSPM6+JWVlThBI9NY1DJtMMJRX8SzhUrafWcGUmzh4SR6Cz+0PMfOGS2v3TjSsZwct9RStJqlSTQg5xCgJ9I9FeIPAfVnHISvvlDCeaLYw3/AEGQcK8+oQgJGU5Tt5cWENNiqlGKoYRgaa5oznWb7anHVmiUJFSTAS9NY0oxobtOv17KXGzizpOcHIYq9JLNEPAYjmVmPffWpC0EKSpJoQRiIgpTPsgfaJGDhjnjzzHkChcVgQnXBKlKNSTlv1TLg9K/yhISkCgAycur/wAGwrGP8xWfYMnXfbLjzholI/3ijguzix947TF+ynMO/wBhbS404ngrQoVBEcJy57iqIWcJbPNV5HLfXwXWlVGYjKDqMGiViikk4UKGNJ9uICUipJjAnEkZhfBDCD6RznMIACQKADJy6ukxMJ9Mg4UItOLrvoK1rISlKRUk5oCVTro+8Xj4I5o1d/sbaXGXE8FaDlEVXLuVUw4feGY6x+d9dJKaIQ5XEhXuq8jq2e3HH6S9mQX8ZxnMMpgUSkU28umjTSSpVkH03VVpmGQdAvo+8WPuEkfhTztpyatvstEqPpNOU/AvIf8AeSEFDzSihaTkIvr4U1KUbXXGpPuq6sHR7Z+FIJMfiWam+KPO4VahkHLyszr1P9I7z1Xwf0Zr03jqyJ6bYAAAoAMnsyPTbo3MADGnIroxbDqvqow6fsXs3BOXoND7YcKzwlbB+fdfFW2/TVrzDl40QhJUo5gMcY3llQGYZB1UvppMP/eu1xgnEOgefs6Qtp1JQtJyg4DFSWV0Cj7ycYPSKX1VeaH2Lp/aTgr0ih6fazVKTwU7BfFFu+mdmTl40XMqDQ/hxq+Qp0301Za+9c2DEOk09pTj+4dI60nvHVfV6L7YdQDzk4D8j8vasaUEjbkjHe99QB2ZYFAMAHLx9FhqpH7SjYBfHpPucBJ/ZT+der2kVWWypv8AiThHzF80SHglf8KvRPf7VjcWB5+V8YG0YNpwW8vmoLykpOpOAd18UKGk8L+Iip+ZPtQolp9QT/CTUfIi9jGEQa/bMoX1ge05ApXlfGFS+D1D8+XsSEFR6BWMajU9OG9iceQk7KivtYoH2UOdNOCfDfNShKmz/Kojup7T7rQ+ZN/3ipXz5eyS6+6l/wB1Sl9ST7X7zCk12K/O/wC5MuJ7j5+08xN/mefL2ip8xf8AdZcPyFvteZ0eG/km1eFPtPMT3X+YOXtGPEL+gc8va/3v03/iz4E+081Pdf0Y5e0Y8Qv6Bzy9r/e/Tf8Aiz4E+081Pdf0Y9Q6hJzFQETLO8ETLO8ETLO8ETDXbEPtdsQ632xDiO0IUOvk7RjxC/oHPL2v979N/wCLPgT7TzU91/RjjqKFUq4sYxXIIwnOYAgCAIAgCAOqBeUrrhxfQow+8P6hiafH9RVsT0zvVRPzO8MXQmO3E+91iyJ935WRPL7KbInVdhNkTp7CbInD2E2ROnsJsieV2E2RPudCU2RdB75WRdGZ6F0i6EwSMil8IdRgJTNIHC9HAFjOMx1eqCCts8FbyhUA5kjLti6Dg2JSPKLpP/KyLpzHWLIunMdYsi6b/wArIui50pSfKJ0Ha0myG0OMk0LraeCpOsjERCgpCgClQNQQcvH0Y8Qv6Bzy9r/e/Tf+LPgT7TzE91/Rjj5VBQ2UHttalyhpmINfU/jQ0tSdoBg1Jw19Sa/ZOLbSdQNR38fRjxC/oHPL2v8Ae/Tf+LPgT7TzE91/RjjqCJhAoCcShmMSa1a0kERJO9QtiRd+VsSLvytiRe6hbEi/2YkJjsRITO7MSMzujEpMbpVkSzw/pmyGXBtQYQobUmAeq8R1wR1wRBHGIgjrgjrhKlqOIJFSYRwHeCQ02caQcZOY6vUgEEUIOUQhSpRRq06BgpmOYiCII64I64I64I64IvNKddUcCU5NZzDXBClIFVqHvKOEnj6MeIX9A55e1/vfpv8AxZ8CfaeYnuv6MeypB6IbQf5RDDXYESrJ/piJOX3SYkZbdJsiQltymyLnyu6EXPld0IufK7pMSEruk2RIy25TZEnLjY0mJdobECEJTsFPVgKScBBFQYufK1/+FNkSMsP6SbIlGN0myJRjdJsiSlj/AEk2Rc6UP9FNkXMlN0BEu0yk4w2gJr6jRjxC/oHPL2v999N/4tXgT7TzE91/Rjl7RjxC/oHPKDBgwYMGDBgwYMGDBgwYMGDBgwYMGDBj979N/wCLV4E+08xPdf0Y5e0Y8Qvkg6oWvtGFr7Rhau0YWvtGFq7Rha+0YWrtGHF9owtfaMLX2jC19owtfaMLX2jC19owtfaMLX2jC19ow4vtGFr7RhxfaMLX2jC19ow4vtGHF9owtfaMLX2jCidprf8AjFeBPtPMT3X9GOXtGPEOQRQOTainWAlI7wfaeYnuv6McvaMeIX2XHV0rwW0lRpsEXNnNwqyLmzm4VZFzZzcKsi5s5uFWRc2c3CrIubObhVkXNnNwuyLmzm4XZFzZzcLsi5s7/brsi5s7/brsi5k7/brsi5k7/brsi5k7/brsi5k7/brsi5k7/brsi5c7/brsi5c7/brsi5c7/brsi5c7/brsi5c7/brsi5c7/brsi5c7/brsi5c9/brsi5c9/brsi5c9/brsi5U9/brsi5c9/brsiUck5evpvTCSmg1JOEn5QkhllPBTXGc5Osmp9p5ie6/oxy9ox4hf0DnlyvzE91/RjjkADCSTiidaqObU90TddiFWQ+s7GlQ47ujCnt0Y+33cfb7uC/uoU/ujC3t0Ydd3RiYWNrSrInKbW1WRPJ6UKsi6DXTWyLoy/ai6MtvBF0JXepielj/VTbE2wf6gh9rtiHWz/MIWnrEKHXBEEQRB9r0Y8Qv/AA7nlyvzE91/RjjrIYZNFAe8rLXZ7GBAHVAHVFLxPXCldcKV1wo9cOLSoYilRBhf2jhBLLpxmnunOdfqnSyw2SkvJ/Es5aHIIn5ok/vlWxPTW+VbE/Nb5VsXQm98q2Loze/VbF05wf11WxdSc3yocVNypNFFQHDQM4OXYYUFIWkKSoYiDiPH0Y8Qv/DueXK/MR3X9GOOMbhUNYOEe214X26T0ZflX1P6wMr4NM/BNIzeprgSpKa80KIHH0Q8Qv8Aw7nlyvzEd1/Rjjq+zfSKJcArgzEZRBYUOdw6eULlx/ObIflh0qsial+pUTjHZVE6z2DE6z2DE6z2DE4x2TE3L9SomZb/AFWRMSp/mVZDksf5zZH6Of6n5Q2wf6v5RLtnY6Ikx0OptiRUdi02xc53oKbYua/0AWxc2Z7EXNmt0YubN7lUXPm9yqyLnzW5VZFz5rcqsi581uVWRc6aJOdoj5mCkzRTwUISahsHHhyn1TKnpNZKuCgVU1XIRm1w04DmKDDa+yYbX2TCFdkwlXUYB6oMNLbl6+m+tNEpGrOdQhPBaZQEJGocfRDxC/8ADueXK/MR3X9GOUhAEJT1Q2g/yiMXqNEPEL/w7nlyvzEd1/Rjl7RDxC/8O55cr8xHdf0Y5e0Q8Qv/AA7nlyvzEd1/Rjl7RDxC/wDDueXK/MR3X9EOXtEPEL/w7nlyvzEd1/RDl7RDxC/8O55cr8xHdf0Q47qW0DKo49meP0g6w3+cKfG1ow+4NrSomiNrarInf+mqyJ5PYVZE8nsKsieT2FWRPDdqsidG7VZE4d0qyJpR/pKsh9w/0lWQ87uVQ4/uTBmN0YEzuvzhM1uvzhE1uxbCJrdi2ETW6/OBND+l+cKmB/RMPPDayqJtY2sqsi6CRtQoeUXUl+lREXQlnFnElLoqfWPNVGThiHEH+YQR1wYMGCPU6IeIX/h3PLlfmI7r+iHHV902ooaTkAGCvT7a4pwcEqYWo1IpjTXLgwjZ6nFDy2pBCilKUGn2lPeVnrkEAXlK64WrtGFr7Rhau0YWrrMPOTEiTRxpauEUjOknERmxGFBSFpCkqGUHCDx9EPEL/wAO55cr8xHdf0Q44pRZKTnSTUH20GjfCcWRkASR3kep/GppYTtoaQKEYKeprwxLox5qYPlTj6IeIX/h3PLlfmI7r+iHHBS4n8LqMY1axE+2R+02R5xOS52pUImZXrVZD0r2lWQ5Kn+c2QqW3hsgy28NkGW3hshUtvDZDkqP5zZD0oP51WRMSnaVZE1KDpVZE3K/6rInZbsqiel+wqLoMbtVsXRZ3Rti6LO6NsXRZ3Rti6LO6NsXRY3arYn5Y7UKiclD0KsiYkz/ADKHlBlVbHTZEuyr+F4ecSzbQyrW6mg6qmFfazLn6x0inQMw9UlKw4SpyXrQg5SnJTVFyZzoaJ7ouTO7hVkXMndwqyLmzm4VZFzpzcKsi5s5uFWRcydJ/wDgVZDKpaTSaqQvAtzVTINZgAJAoABiHH0Q8Qv/AA7nlyvzEd1/RDl7RDxC/wDDueXK/MR3X9EOXtEPEL/w7nlyvzEd1/RDl7RDxC/8O55cr8xHdf0Q5e0Q8Qv/AA7nlyvzEd1/RDl7RDxC/wDDueXK/MR3X9EOXtEPEL/w7nlyvo0d1/RDjqKnVCqWkYVHXqEXNXTW6LIuaveiyLmub0WRc53eCLnvbxMXPf7aYkJjtJiQmO0mJGZ7SbYkpnrTbElNdabYk5r/AE2xKTfUm2JWb6k2xLTfZTbEtOdhNsMTnYT/AN0Mzm7TbDU5uxbDc5uhbCJvdC2EzW6/OP0rc/nCpncmHJjcGHn9wqJh3cKsie4BOVxtSR10haVoUKpUk1BGo+qcQ22nGtagAOkxdeUqP3gi6skf66bYujKHY+m2J6W3ybYn5XfJti6UmNr6bYutI1P/ALhNsLStCsIUk1B6fUaIeIX/AIdzy5X0aO6/ohxsQFTBqpxVdgyDoHtqyZWZqEJJwIXSuDbTu9SaACpJyQtQlEKIYargCc9M5x1vCAOqEjqhI6oA6oAhxSpNSgH2K+iRlIGQiCFJUAQRlB4+iHiF/wCHc8uV9Gjuv6IcYVBFDCSOAfRPOTkI9tB4LCi8s5gBaQPUminG1JB1kUhJStB4KgcYIwH1AqTgAzx+sbYbQraEgHj6IeIX/h3PLlfRo7r+iHHZC+D+FYNFJ2GJuaAzeifKJ2Z6k2RPzHZTE+/2ExdB/sJi6L27TF0nd0LYuk7uhbF03NyLYuovci2LqK3Iti6itx+cXUO4/wDKLqncf+UXV/6H/lF1E7j/AMouoncH/ui6iNybYuo3uTbF02dybYumzujbF0mN0q2Loy+7VbF0ZbsKiflOyqJ6T6lWROSXWqyJ6UQjKUBSj1UEAqcXhceX+JZ8hq9U6hiaXhcQseg4c+DEe+JRpYzpfT50i5az/C4g+cXImOgpti4811C2LjzXULYuRMdJSPOLmKH8TqB5wttbrR4Tcug1SlWQqOWmb1GiHiF/4dzy5X0aO6/ohy9oh4hf+Gd8uV9Gjuv6EcvaIeIX/hnfLlfRo7r+hHL2iHiF/wCGd8uV9Gjuv6EcvaIeIX/hnfLlfRo7r+hHL2iHiF/4Z3y5X0aO6/oRx3wgq/CgYVK2AQ1N7sWw3N7sWwia3QthM1uvzj9J3X5wZncwuY3Jhx/cmHn9yqH3tyqJh3cqsiac3KrIm17ldkTx3K7In/8ApLsi6I3S7Iuindrsi6SOwuyLpt9lVkXUa6lWRdRn/VZF1ZfrNkXWlu0bIutK9uLrSvbi60pvIutJ1P70QtK0KFQpJqD0+16IeIX/AIZ3y5X0aO6/oRxvwoSVHYBWFErcNac0ZANQ9scUZFxQS80TgAPvDMR8/WqCUpFSomgAzw++tINC8hklFpHRDiHWXE8JC0GoI9Zoh4hf+Gd8uV9Gjuv6EcY0+1bUiu0UhJS62ooUDkI9sBUtxQQkDKTgEGpSkJJ2D1k2z9s4pCChLg4RSVCopjxXn0AomT9mhShWhSCaDNWvrNEPEL/wzvlyvo0d1/QjjlTMyBT7VvLtGWLpoprZNsXSa3Rti6TO6NsXRZ3SrYujL7tVsXQl92qJ+W7KonpXsqidlOpVkTkn/qsick+tVkTUl2lWRMyXaV/2w/JdtX/bD0lvFf8AbDknvD/2wqU3psgym+NkCV335QiV335Q3Lb/APKGZbfiyGJffiJZnfpiUa36Yk29+mJNsay+mnfDiHppH6tCPwNnPU4z3eqWlCEglSlGgAzkw0l0jAZl0ej/ACpy7TF0Jh0H3OHwUj+UYIArsvY88XSmG0j3CvhJ7JqIlRTF+kS4xayizqiYbfZViUg16DmOo+p0Q8Qv/DO/Tyvo0d1/Qjk1ykgwrgrKT+uWMf8AKDi681+Smf0ZAqp4tEIA23hQHETlvuKDalpS83XA4gmhqM+Y+p0Q8Qv/AAzv08r6NHdf0I8+TFcF3gfZtn9pR4I7632EvT7iQsJcFQyDiAGfOY0Q8QvMNPNmZdqhxAUMmeFmRex8A1U0Tsxjo6ok3Ej3XEAqQrYof/2JZxm57awtx1xJTwwDXgprjr8vU6EeIX/hnfp5X0aO6/oR58mYjNNg9Sje/B9qjhbOEK3tEPEL3xLnl6zQjxC/8M79PK+jR3X9CPPkwVUwUvAaknD8ib7yWJtsBCHlmiXQMAqcituODUFoUP8AML3xLnl6zQjxC/8ADO/Tyvo0d1/QjkxIU2tJSpJyg4CIBLCiVS7mRaMnSMRvzj36G6ngrYKqppWuAHF0Xpv9Hf8AtlrBWg8Eg0p6WKH23mziW2sKHWPV6EeIX/hnfp5X0bfdf0I8+TW+EnGhYwKQrOk5DDapySGEPNJqUj9pOMbRUcWZdl3B7zSymu3P0w0Hm8X6SymixrKcR6KGHkPMOCqVoNQf95vU6EeIX/hnfp5X0bfdf0I8+T5FCXlf5zPoL6xj6YuipxlgcItPN+lSoGBQ25rwx4td8qXJOkCYZrjHOH7Q+eKFhbTiQtC04lA4QfUaEeIX/hnfp5X0bfdf0I8+UNEPEL0q1MNGZd9F1AUMnVHDqkFSpNR4VR+wcddRvqJVJPFCf4FekB11HqNCPEL/AMM79PK+jb7r+hHnyYoJSBUkmgETss8sY0tupUR0A39EPEL3xTvleACPtuGAMnCAUfmTe/DwWj01V6jQjxC/8K79PK+jb7r+hHJjikycqEhSAaBayKknPSoAhRbcQapWg0KTqIhKlpxJm204f50jHtHVEy0+yrEttVR+UaIeIXvinfKHUtMNJqpR7hnJzQngmYdKwnmjIOgAXhQTDwQnWEDD81Hq9RoR4hf+Fd+nlfRt91/Qjz5MaU5KvJH2/BFS0oClTqIAw57809Lu85pZSTtz9MOszDL6OApam6LGEHGKDJmvSkus/aKc+1dUo4/2RTvibU6EmqGwOChGxI78d5vhvvKoMyRlUdQxx+rYQE1ONRyk7TU+o0I8Qv8Awrv08r6Nvuv6EcmAEHGDCxIzKsJQE1aUdnu9HVEi4Gh/nNjhtnpGLppGLiyqvsa0VMOei2npy7BWPvpxwD7aYUKFWoDInV1+p0I8Qv8Awrv08r6Nvuv6EefJ2I44uWx9ocbjQ+zV1ppDk0HEOISEOOBSaFVM1fnemphsMvfZhDXBFRwQa1IOeLniYcTiXMqLnyOD5QkJSkUAAoB6rQjxC/8ACu/Tyvo2+6/oR58oJJ4DjSlUyALGG8khK5s8E56ITX1mhHiF/wCFd+nlfRt91/Qjz5QbS4y4kpWhQqFA4wYnJ1tgmv2IUk0GYKIrDQal2hRKR3nOdfrNCPEm/wDCu/Tyvom+6/oRy9oR4k3/AIV36eV9G33X9APPl7QjxC/8K79PK+ib7r+gHL2hHiF/4V36eV9E33X9CPPl7QjxC/8ACu/Tyvom+6/oB58vaEeJN/4V36eV9E33X9AOXtCPEL/wrv08r6Jvuv6AefFaTMTgHp8I0Q3qNMZ1QiUWjKj7Mj51hJamWwPtWVGtNYOUeqUEpAqSTQAQw2ptJp+kPAnha0pFMGsxLS8wzX0vs08BQGrDSHOGy4MGQg5QRkI9U5wGWxkwlRyADKTEtLSzNfRDiS4sjWagdUS7SG1Gn6SyCAnWpJrg1jqggpIqCDUEeqQX5x0EtMJNKjnKOQQiRQiv6v7En51rDKZWfIqgJVVDtMfBrhB1H1bCJqcbNHXFk/Ztnm4MKjnzQ1Ivt1wt/ZFGDUQYBafaID8us1U2Ti2g5DxNCPEm/wDCu/Tyvom+6/oB58QpVOvApYRmzqOod8KK1rJUpSjUknGTePptn0k5FpONJ2wrhNOp4QzjODrGL1LmE/8AqlpOIcy3qz33KSM0oBZOJteIK2ZD+XqVBKEglSiaADPCiLny5IZTzzlWduTVfXV9hNZZRP42xjTtHds9SfQbFEoBwrUcSRrMKq86a0GJIyJGoXnFNutqC0LTjSQagiOCmab+7mWx7q841HGPy9Ssf8TmkkNfuk4is9w17IJJJqSTUk3qqbHoPtA/rGzjG3KNYhwOS7yAtCxlBv6EeJN/4V36eV9E33X9APO+rgtNpqaYycgGswfSWaJRXAhORI4i6Skyr0STgbcyHYcXV6gpM8+ClhJw8HOs6h3woqWolSlKNSScZPEXWblk/dqJwuN2jFsp6hz/AO2tJ6m7erPxHC2+ysLQoZCIolz8DzYP6tYxjZlGo8dQQhCSpSlGgAGMmFKTc+XJTLo52dZ1nJmHE4SpVz7uZbHvIzjWMY6ssLS4y4kLQtJwKBwg8c+igUQgHC4s4kjbC+E+8qppiSMiRqAwcRz/AA0wqsqpR/A4cadiu/bf0I8Sb/wrv08r6Jvuv6Aed4gAYSScULP6BLqIb/eKyrs1beMus7LABRONxGIK25D+fGVRtsYhjUciRrMH01miUjEhORI1Dir4D7KuEk59R1HFBoFii0VwoUMaTs4ykm6EwCGU4+AMqzsyZzCipaiSpSjUknGTxVEyL9ETCcwyL2jurCgpCgClQNQQcvGc9FJ/xi0nGdHb1Z+M56KiVSalHEcZb8x0jNxlpQ0hJUtajQJAxkwVJudLkplkHLnWRnPyHTxSUqBqCDQg54WP+JSoCJgc/Msbcuut7QjxJv8Awrv08r6Jvuv6Aed5fpqH+JWk/hHM2nLq232y486oJQgYyTCy6ttNJumIE+8NQxdRvmjjSq0yKGVJ1EQqrTqa0ypOUHWDg4hCUgVJJoAIUf0CXJDQ55yrPlq236paHpPO0/Ai04hAUZJ+qmFHDTOknOO4310kJkhLtcSFZF+R1bIxcRVG2xgSMa1ZEjWYVVx04EjEhORI1C+pbMmlKm2lJxrczjUn5nBnhHBeZVwVZjmI1EYb7n3jYKpVSj+JOVHRjGrZxVA3SmUkMjRjKs7MmvZCipSiSSTUknKb4WLrH79Ev+7p+AjnEYeoZ761IcQoKQtJoUkYQRBSJ1mjcygZFc4ajj6xk4rn3aD/AIxxJ/ErI3sGXXgz32y5MPrCEJ8zmAxkw4t9gIS1NqPuu84ZknFqoM9+quAeC63XA42cabNYEOByXfQFoVnB88hjQjxJv/Cu/Tyvom+6/oB5wUqnXgUsIOTOo6h3wsrcWSpSlGpJOMm+ik08n7lChhbQcu090JC21pKVJIqCDjEVVLOemws5U5toxdV9dJKaUBUnA25iB2HEejiOekR/ilpOIcy3qvtlx51QQhAykxRb66LfdA/GqwYhFEqPpNOcxYxG3VDZbeZWULSchF9dZmXTVlSjhcbGTanupmvqCUpBJUTQAZzCiLny5IZTzzlWduTVtv8ACQwn05h0e4i04h+UNpbYaQEIQnIBDdZ2VSeElIwut4yNoxjpF9wtvNLC0LTjSRiMUS+n0JhoH8Cxj6DjF8/dtiiUjGtRxJGswvhOunEMSRkSNQvtVkpdf3CFDA64Mv8ACn5nZebpJTa/vEpGBp0+Sse2t+qmD6Ew0PfbOPpGMfnDiXGXUBba04lA4jfWP+JzSSGv3Scqz3DXsglSiakk1JN9ul0ppP4VDCy2cITtOAnoGSG0uMPIKHEHKDFVN/jYdI/WNnEduQ6xfcpJza6sKUcDbpybFd+2NCPEm/8ACu/Tyvom+6+vgtNywJzk4aAazB9JeBKK4EJGJIvorJS6sCTidWMmwZerPfol9HpsOH3V2HEYQUOtqKVpOMEYxfXWdlUgAk4XG8h2jEei8UmefBSwk+7nWdQ+ZhRWtRKlKUakk4yb7dJx9P3SFDC0g+Z+Q6b6KzDCaTCUj8bfO2p7tl9wtvsrC0KGfXqiiSocFxuuFtYxj/eSl5z/AO2tJ/6dvVnvtlx95QQhAykxRbyvTfdp+NdgxC+3S582olIGJtzGU7DjHSMl8qMm9RuZQMqecNYx9cKC21pCkqSahQOEEQpKEJBUpSjQADGTBIudLkpl087Os6zkzDpv8JEs3Rcw6PcRmGs4h15IbS0w0kIQhIwJAvI4bD6ClQ8xrGMRhU2aocpgcQfwqG3vrfc+6dJVKKUfwryo2HGNdc94+ggUQgHC4s4kjWfzhfCfeVU0xJGRI1AYL7VZNhf+GQofrXB738Kfmdl9KRdCXq5LLOU5UHUrvpCVIWglKkqFCCMYN4kHOMkOA3Tk5dKHqnC4nhJ4K+nEde2/8I99PK+ib7r9US0m0EhPOXlUe4fnfqlH4nXKYEIynbkEICGWkhKEj/ePiI9JACZpIyjIvoxHVTNfVwXWVVGYjKDqIwQukvwKlNfSC8XA/irgg+ms0SkYkJyJGoX26yMur0EqGB1weQy68GfiAEHAQRjhB/QJklTP7Byo6MmrZfUf0CZIQ+ObmX0ZdULSuemUkMAYQkc86hkzmFFS1ElSlGpJOMm+3SemEfdoUMLLZ+o5dWDPxE1adTSoxpORQ1gwmjzKqEjEoZFDURhvuYRVUopRxjGW/MdMOein/wBYtJxnI35nqz32i7MPKCEIGU2ZaxRbp9N92mFxeU7Mg1cRAN0ZUFTNBhcTlR05Ne2AQRkN5RStJCkqSaEEYiIdQ3NyaeDOVNAKCv2mwgE7QYKk3OlyUyyDlzrIzn5Dpv8ACRJtUXMuj3U5h+0cQ6TkhtLTDSQhtCRgSBiHEb+6dITOJSPwrOAL2HEddDlvuKQHWy0sD3kmlQeodV/4R76eV9E33cVtTjriglCE4yTFFzDlFPuD3lZhqGIfnxUhSFApUkioIOSATJu1XLrObKk6x3Uvur+w4f2n2dfR4VKVpnpfqhoek87T9Wi04hDYbYaSEoSMg4uDhira6YW1jEof7xVhHAfZWULHmNRx33VuFtAbRwzXgpGIDUL7dZGXX92hQwOuD6R39PGbrPyiSaAYXW8ZTtGMdIy33FNutqCkLSaFJGIiFFSlEkkmpJOM32qXQmU+glQwstnJqUcZ6Bn4zf8AhJpVH0pGBt05diu/bfeW2h9H2bqUmgWmoNDnFQL7RcmH1hCE685zAYyYopz8b71MLqzjOzIBm4raXWHkFDiFYlJOAiOEuXV95LOn32ycHSMR/Pi/CPfTyvom+7iopMvJ+5QoYW0HLtPdt49Euj02XD7ixi6Mh1QgoeaUULQchHEbLjzqghCBlJjgrmF0W+6PfVYMQ47dZuWTR1KRhcbHmnHsrxaoYT6b7o9xFpxD8obS2wykIQgZAOO3SQm1EkAYGnMZGw4x0jitVkpdX3KFDA64MutKfmdnHbDku+goWnOD5xVQSeE05TA42cSrdYPFbpdOaSKJUMLLZw8HacBPQMnHCUzzFXJVw5FZUnUrF1HJCFNutqKVoUKFKgaEHifCPfTyvom+7iI/wMurAkjA6sZNgy9XqUfetACZSn3kZFbRl1bOI3ScfT90hQwtIOXafkOn1KKXPmiVN0xNqxlHmNWy+2XH3lBCEDKTHBW+v033afjXYMQ9QjhMvJ4Jzg5CNYOGB940rAoYlpOJQ1EX+EiWR6cw6PcRmGs4h15IbS0w0gIQhOIAeoSP+IyoK5c8/Og7aYNdIBSoGhBFCDmvtVk5df8Ah0KGB1we9/Cn5nZ6lv0VUTOoSMRxJc7geg5+J8I99PK+ib7r9Uo/E65TA2jKdubXCAhlpIShP+8vqUhSVChBFQRmhpSrmumrbgFQ3X3FZqZDlEEQwUyLR4TaFin2ysmDmj5+qHoOD0VgYUKGJQ2GGS2sH0V09FwZ0nKISVrUaJSkVJOoQ3wboPJohtWNlByfxHLmxZ/VIH/EpYEt5PtEZUV+Y17YbW06g0UhY4KgdYMS6n31nEnEkZ1HINZii3j6b71MLi8p2ZAM3qpdTjLvpTbTYqUK54GY5cxw5YIhC27nIVWYmaUFOak5VH5Y4bS0w0gIbQkUCQMQ9S2lxl1JQtChUKSRQgxwlSjlXJV0+8jMTnGI9By3/hHvp5XSSw8gNLVzVitK7R3Xm1OOuKCUITjJMcFcy5RT7g95WYahk/P1YCkkUIIqDFypJLla8IMJr3esl2n2+Y6gKHUYufKy6+c0ylJ6wPWXPlZkjEXWkqI6SIlWJdB91lsIB6vWXHkHHq1K1y6STtwYYQlCEiiUpTQAagPV8FM41VyVdPurpiOo4j15IaU0+ysocbWKFKhjBvNlMs00ZdlR99ZIKqagABtPK7SHWXBRSFioIiZmpdJP4AoKA2VFYaUuYIoXnTwlUzDIOj/kBlbU5Sn6TLq4KyMgVjCukRNz04gGoaWpKEnbwRU9YhltlhpIShttNEpGYD/8+X//xAA3EQABAwEECgEDAwMEAwAAAAABAAIDBBETFFEQEiAhMTIzQFJxgQUwQSJDYRUjYkJQgKGRsfD/2gAIAQIBAT8A/wCP4BPBCGQ/hYeTJXEmSuJMlh5Mlh5Mlh5Mlh5clh5clh5clh5clh5clh5clh5clh5clh5clh5clh5clh5clhpclhpclhpclhpclhpclhpclhpclhpclhpclhpclhpfFYaXxWGl8VhpfFYaXJGnlH+lEEce4jp3O3ncm07G/wAoCzh/sjmNducFJRNO9m5PjdGbHDtGtLjYFFAGbzx0PmYziU6rP+kI1Eh/KvpM1fSZq+kzV9Jmr+TNX8mav5M1fyZq/kzV/Jmr+TNX8vkr+TyV/J5K/k8lfyeSv5PJX8vkr+TyV/J5K/k8lfy+Sv5fJX8vkr+XyV/L5K/l8lCZ5TuduTW6ost0SVcbdw3p1a88osRqZT+U2qlH5UdaODwmva8WtKc0OFjlPSmP9TeHZMYXmwKOMRiwJzg0WlSVDnbhuHfQQmU/wmtDRYFLM2Ib+KlnfJx4bTHuYbWlQVQk/S7cdFVT6n628Oxgi1G7+Kc4NFpUkhkNp75jC9waFGwMbqhTzCMfynOLjafs0tRr/odxRAIsKnhun2fj79NHrO1j+NFRLrusHAd/RxWN1z+U9wa0uKkeXuLj9oEg2hQyiRgcqmK8j3cR9+FmqwKd+ozd+e/Y3WcGoAAWBVsnBg+5Ryar9U/nRUM1JCPusbrOA0VTrXWZd/Rttkty0Sv13l33ASDaE02gFV7d4d92mFsg0Sm2Q9/QjcSpDqsJ+9TG2Jqrh/bB/n7tLz6H8x7+h5D7VR0nfepOiFW9L7tL1NDuY7FhVhVh7mh5D7U/Sd96k6IVb0vu0vU0O5jppmBz9+1qhajcldtyV0zIK6ZkFdR5BXUeQV0zIK7ZkqmMRv3bAUdPG0WWK6ZkFdMyCuY/EKrga0azdih5D7U/Sd96k6IVb0vu0vU0P5jpa4tNoWMfksY/ILGPyWMdksa7JYw5LG/4rG/4rGjxWNbksa3JY1uSxwyWO/xUkhe7WOyytIFjgscPFY4eKxzclPUGXdwGxQ8h9qfpO+9SdEf/AH5Vb0j92k6mh/Me/oeQ+1I3XaW5rAHyWAPksAfJYA+SwB8lgD5LAHyWAPksAfJf08+S/p58v+l/Tz5L+nnyUMd2wNVb0j92k6mh/Me/oeQ+1w4rWbmtZua1m5rWbmtZua1m5rWbmtZua1m5rWbmtZua1m5rWbmtZuarZmluoD92k6mh/MdgRvP4V1JkVcyeKuZPFXMniVdSeJV2/IrUfktR2SsOXZUPIfaqOk7vKTqaH8x00jQX7/vWKqjax/6fzssiYwWALVbktRuS1G5Ksha0Bzdih5D7VR0nd5SdTQ/mOlri02hYuRYqTNYqXNYqXNYqXNYuVYuRYuRYyT+FjX5BY12SxrsljXZLGuyT3l51nbLKxzRYRascfFY7/FY7/H/tTTulO/hsUPIfaqOk7vKTqaH8x7+h5D7VR0nd5SdTQ/nPf0HIfaqOk713lJ1ND+c6ePBXMniVdSeJV2/Iq7fkVdvyKun5FXUniVcyeJVzJ4q5k8VcyeKuZPEq6fkUWOHEfeoOQ+1UdJ3rvKTqaH8500YGsc/v1bWtk/TssY1jbBosCsCrY2tscNig5D7VR0nd5SdTQ/nOkEtNoQqpc1i5Vi5FjJFi5Fi5Vi5c1ipc1ipc1ipc1ipc1i5c1jJVjJP4TnFxtOzHVvaLOKxzsljnZLHuyUszpTa7YoOQ+1UdJ3rvKTqaH857+g5D7VR0neu8o+p8aH857+g5D7VR0neu8o+p8aH850hpcbAsNLksNLksPL4rDy+Kw8uSw8uSw8visPL4q4l8VcS+KuJPFXMniVcyeJV1J4naDXHgFquyVhWq7LZoOQ+1UdJ3rvKPqfGh/MdNFZrG3j9+sAEm7ZY0NaA3YrmNBDhxOxQch9qo6Tu8pOp8aH8x0gkG0LES+SxEvksRLmsTL5LEy+SxMuaxMuf/AKWKlzWKlzWKlzWKlzWLlzWLlzWLlzRcXG07MdVIwWBY6TILHPyCx0mQUkjpDa7YoOQ+1UdJ3rvKPqfGh/Me/wDp/TPtVHSd67yj6nxofzHv6Dpn2qjpO9d5R9T40P5jpp4L07+AWDjWDjWCj/lYKP8AlYKPMrBR5lYKPMrAszKwLMysCzMrAszKwLMysCzNSUNjbWnbaxzuUW7dB0z7VR0neu8o+p8aH8x0004iJDuBWKizWJizWJizWJizWJi8liYvJYiLyWIi8lfxeSv4vJX8XkFfxeQV/H5BSVMbW2g2najo5H7zuUEN03VttU1EXuLmnipIXxn9Q2aDpn2qjpO9d5R9T40P5j21FCHHXP4U0zYm2lU8xlaSRYsYwPLHCyxSPjMZJO7Z+n9M+1U9J3rvKPqfGh/Me2oT/bs/lV0bnAOH4VByH2p+q73tfT+mfaqek713lH1PjQ/mPbU85id/BTHteLWm1AAcFLRB5LmnepYXxn9Q2fp/TPtVHSd67yj6nxofzHt2uLTaCqOR0jDrFCrZrljtyewPbquUjNR5blsfT+mfaqei7vKPqfGh/Me2joi9msTYpYXxmxwVByH2pt8rh/KjBDQCqo2zO2Pp3TPtVPRd67yj6nxofzHtqesDQGPQLXjdvCaxrOUWJsTA7WA3qoqWxCwbyiSTadj6d0z7VT0Xeu8o+p8aH857cOLTaCqJ7nx2uNu9VMr7xzbd219O6Z9qp6LvXeUXV+ND+c9wyV7OU2Im3edr6d0z7VT0Xeu8o+r8aH857/6d0z7VT0Xeu8our8aH857/AOndM+1U9F3rvKLq/Gh/MdDGOebGqSnkjFpG0KSUttsRBBsOzFA+XlCkifGbHDZa0uOq3ipKSVjdYjaZRyvbrAJzS02O46Pp3TPtVPRd67yi6vxok5z7QBJsCp4bpu/iUQHCwqaIxPs2KODWOu7horYP3G/OxFEZHaoTGBjQ0KeISs1U4FpsOxSU923WdxKO9VUF0/dwOxR0967WdwGiup9cXjeI0fTemfaqei713lF1fjQ/nPtUkFn9x3wuG9RyNkFrVUQ3rLPyiCDYdEEJldZ+EGhosCvW6+pbvRAIsKqITE+z8aACTYFTwCJv8qSRsbdZyBBFoVbBaLxvzpoqfWN47hojlbJbqngpohKwtKc0tcWnRDEZXhoUbAxoa3gnSsa4MJ3nRWU90+0cCvpvTPtVPRd67yi6vxoigvJSTwB0Vk/7bflU010/fwOisg/cb8prS46oUMQibqhTzCJtv5Re4u1rd6glErNZTxCVmr+UQQbCqOns/uO+ETYLSqme9du4BUU/7bvhWW8VUw3T93AqngMzrPwgABYFW1GqLtvEqCYxP1k0hwtCrqfWF43iEASbAqaAQss/P5UsrYmFxUkjnu1zxVJPes38RxU0QlYWlULCxrmu42qq6LvXeUXV+NDWhosCqZ7ptg4nTRz2i7PwiARYVBTNiJKc4NGsVNMZXWnRTzGJ9v4Q3i0KSlbJIHn50VlR+2350AkG0KnmErLfz+VNEJWFpUMQiZqhVEwiZb+fwnOLjadFDUWG7d8aIqRschf/AOESALSqqovn7uA0QTGJ4cExwe0OHA6Krou9d5RdX40SPEbS4qR5kdrHS0lptCglErNYaKufXOo3gNiin/bd8aKqe6bYOJ2IJjE/W/CaQ4WhPeGNLippjK/WOxSz3zN/EcdFdUWm6b87FBUapu3cDw0VPRd67yjIEu9HdvKqZ7127gNmCZ0TrQpa0ubqtFmyCQbQm/UP07xvUjy9xc7Zp6wxDVItCqKozbhuGzDM6J2s1SfUSW2MFh2qKovWWHiFWODYXW966aRwsJ/2Br3MNrTYVJLJJzm3/kZ//8QALxEAAQMCBAUDBAMAAwAAAAAAAQACAxFRBBIUMhATICFAMDFhIjNBgUJScVBigP/aAAgBAwEBPwD/AM/lwb7lHERD8rVRXWqiutVFdaqK61UV1qorrVRXWpiutTFdamK61MV1qYrrUxXWpiutRFdaiK61EV1qIrrUR3WojutRHdaiO61Ed1z47rnx3WojutRHdaiO61Ed1qI7rUR3WojuufHdCaM/lAg+3kS4tjOw7lPxUjvzREk+/wDwgJHsmYlw3Jj2vFR4j3tYKuU2JdJ2HYcI8O9/sE3Aj+RQwsQ/C08Vlp4v6rTxf1Wni/qtPF/VaeL+q08Vlp4v6rTxf1Wni/qtPHZciOy5EdlyI7LkR2XIjsuRHZciOy5EdlyI7LkR2XIjsuRHZciOy5EdlyI7LksspBFGO4TjU14Mw73e/ZNwrR7lCCMfhGCM/hOwp/iUWlpoUCWmoUU4d2Pv4T3hjcxUsrpHVKYwvNGqHCtZ3d3PnTSiMfKLi41KjidIeyjiaz26nNDhQqWEs7j24QTZvpd7+DiJuY7t7BMYXuyhQwiMUHv5z3hjalPeXmpUURkPwmtDRQejNFl+oeyBp3Cikztr6+Llytyj3PDCw5G1PufPxMlXZR+E1pcaBMYGNoPSIBFCpGZHUUL8rvXxD88hKw0ed/f8ee92VpKrU1WFZ/I+piGVbW3CJ2ZgPqyuysJ4YJlGZr+fiTRlOEbcrQPUIqKIihosKexHq4s0iPCAUjA8/FnuAmCrgPWmFHlYY/X6uM+3++Eewf55+K3BRbx60/3CsPv9XGfb/fCPYP8AOioWYKoVfIxW4KLePWn+4Vh9/q4z7f74R7B/nHFPLWduqpWZ11nddcx91zH3K5j7lc191zH3Wd11h3l7O/QTROme41quY665jrrmPusPK5xyu6MVuCi3j1p/uFYff6uM+3++Eewf5xcwPFCtEy5WiZcrRMutE260TbrRC60X/ZaL/stGbrSG60jrrSG6GEN0MJ8pjAwUHS7C1NWlaQ3WkN1pHXUUIj7/AJ6MTuCi3j1p/uFYff6uM+3++Eewf55+J3BMdlcCtV8LVfC1XwtV8LVfC1XwtV8LVfC1XwtV8LVfC1XwtV8KR+d1Vh9/q4z7f74R7B/nn4ncOGU2WU2WU2WU2WU2WU2WU2WU2WU2WU2WU2WUrKVlNlh4zXMfVxn2/wB8I9o6DIwflc1lwudHdc6O65rLrmsuuYy6ztuszbrMFVV8DE7got48zGfb/fCPaOOLcQyg6aejVYZ5czv0FOkc41JWY3WY3WY3WHkcTlPRidwUW8eZjPt/vhHsHFzQ4UK0ka0sa00dlpo7LTR2WljWljWljWkYtIy60jbrSNutI260jbpjAwUHS7DAmoNFpPlaX5Wl+VHEGDoxO4KLePMxn2/3wZtHn4ncFFvHmYz7f74M2jz8TuCi3jzMZ9v98GbRxJoucy65rLrmMuuYy65jLrmsuuay65rLrnR3XOjuucy65rLrmMuszb+tidwUW8eZi/t8GbRxxZOUU9fDuJZ36XOLjU9GGeTUHoxO4KLePMxf2+DNo4locKFaaOy0sa0sa0sa0sa0sa00a00dlp47LTx2WnjstPHZaZi0rE1oaKDpdh2uNVpRdaUXWlF1HGGCg6MTuCi3jzMX9vgzaPPxO4KLePMxf2+DNo8/E7got48zF/b4M2jiSAKlaiO658d1z47rnx3XOjuufHdc+O650d1zo7rmsuuay65rLrmMuuYy/UXAe6zC6qFmF+nE7got48zF/b4M2jji60FvXw5OTv0uJJqejDOPcdGK3BRbx5mL2cGbRxIBFCuRHZciOy5EdlyI7LTx2XIjsuRHZaeOy08dlyI7LTx2WnjstPHZadiAAFB0ugY41WmbdaVt1pm3TGBgoOjFbgot48zFbODNo8/E7got48zFbODNo8/E7got48zFbODNo4zS8sdvdaqRaqRap61L1qXrUvWpetS9al1lqXWWqdZal1lqnWTMTU0cOsuDfc9eJ3BRbx5mK2cGbRxniLwCFp5LLkSWXIksuRJZcmSy5MllyX2XKfZcp9lyn2XKfZcp9ly32TIXE9x1PxDW9h3Ukmc1UeIygAhMka/26cTuCi3jzMVs4M2jxsS8j6Qo4y80Clj5ZotO4tDgmtcHUHv04ncFFvHmYrZwZtHjYkfWsM8AkFYncFFsHVidwUW8eZitnBm0eNLHnHynNLTQokn3TMQWihCZI1/t04ncFFvHmYrZwZtHjkA+6nYGu7LkOy5gmuLTUJjszQejE7got48zFbODNo8Z+IyupRMka8dlidwUewJxBcaKEUYOjE7got48zFbODNo8aWAk5mogtKLi73WdxFK9lHCXmp9kBToxO4KLePMxWzgzaPHIB91O0B3ZRMblBp1YncFFvHmYnZwZtHkOY13uF7dWJ3BRbx5mJ2cGbR5+J3BRbx5mJ2cGbR5+J3BRbx5mJ2cGbRwc4NFSmzMcaDqM7K0qga9L5Gs90x7Xio6SQBUpszHGg6nTsaaIEEVHDFbgot48zE7ODNoRNFLJnPwgSDUKN+dtejES0GUcMPJ/A9D3hgqU5xcalRvyOqgQRUdE0uY0Htwhkzt+eieXIKD34YeTKcp4YrcFFvHmYnZwZtCxEtfpHBzC00KikyOQNeEsgYKokk1KyOy5vwgadwopM7a/ngTTupZM7vhNaXGgRFFh5KfSeM8lPpHBzC33THljqoEEVHCR4YKlOcXGpQYSC4cIJM7e/uFitwUW8eZidnCSXIwAe/DDxfyKmjzt+eGHk/iU5waKlSPL3VUcZeaLKKZfwpGZHUUb8jqoEEVCxEtfpHCKPIPlYiP+Q4RSZ2/KlkyBE17lQRVOY+ykYHtoiKGhWHkocpRNO5Usmc/CYwvNAmsDRQKaPI7t7Jjyw1CxDg4ghRbx5mJ2cCSfdQx5z8ccRHT6ggadwpJS8AIAk0CjYGCnCWPO2n5VKe6ZMWtLRww8X8jwIqpY8jqKN5Y6qe8vNSo485ogABQcMRHX6hwfMXNDUO/soo8g+eEjA9tCiCDQ8Id48zE7ODGlxoExgaKDiQCKFSMLHU4QRZRmPv0YiP8AkOEMec9/bokZnbREUNCgCTQKNgYKdE0eR3xww8X8z0YiOozDhD9weZiASztwhjyDv79MkYeKFMw1DUnpIr2RwvfsU1oaKDpkhDjUe6ihDO/56XsDxQpuGoak9U0eR3b2UIJkFPNEbQagf8AWhwoU1jW+w/8ARn//2Q==;" vertex="1" parent="UEzPUAAOIrF-is8g5C7q-175">
          <mxGeometry x="140" y="160" width="110" height="110" as="geometry" />
        </mxCell>
        <mxCell id="DsdZXftXb6FMQTqhYJn2-35" value="Facturas de venta" style="text;html=1;align=center;verticalAlign=middle;whiteSpace=wrap;rounded=0;" vertex="1" parent="UEzPUAAOIrF-is8g5C7q-175">
          <mxGeometry x="151" y="260" width="69" height="40" as="geometry" />
        </mxCell>
      </root>
    </mxGraphModel>
  </diagram>
</mxfile>
